/* XPM */
static char *result[] = {
/* columns rows colors chars-per-pixel */
"64 64 138 2 ",
"   c white",
".  c #FEFEFE",
"X  c #C3C3C3",
"o  c #C0C0C0",
"O  c #F6F6F6",
"+  c #D0D0D0",
"@  c #313131",
"#  c #484848",
"$  c gray63",
"%  c #E6E6E6",
"&  c #909090",
"*  c black",
"=  c gray1",
"-  c gray18",
";  c gray49",
":  c #CECECE",
">  c gray98",
",  c #EFEFEF",
"<  c #494949",
"1  c gray9",
"2  c gray35",
"3  c #AEAEAE",
"4  c gray93",
"5  c gainsboro",
"6  c #9D9D9D",
"7  c gray61",
"8  c #A7A7A7",
"9  c gray94",
"0  c #C1C1C1",
"q  c #161616",
"w  c #070707",
"e  c #373737",
"r  c gray54",
"t  c #D8D8D8",
"y  c #FDFDFD",
"u  c gray65",
"i  c #020202",
"p  c gray3",
"a  c #232323",
"s  c gray85",
"d  c gray99",
"f  c gray48",
"g  c #010101",
"h  c gray12",
"j  c gray40",
"k  c #BCBCBC",
"l  c #F3F3F3",
"z  c #A5A5A5",
"x  c #1D1D1D",
"c  c #A2A2A2",
"v  c gray71",
"b  c #B6B6B6",
"n  c gray74",
"m  c #F4F4F4",
"M  c #F9F9F9",
"N  c #FBFBFB",
"B  c gray88",
"V  c gray21",
"C  c #0E0E0E",
"Z  c gray27",
"A  c gray60",
"S  c #E1E1E1",
"D  c gray64",
"F  c gray15",
"G  c gray81",
"H  c #E7E7E7",
"J  c #F8F8F8",
"K  c gray97",
"L  c #0B0B0B",
"P  c gray14",
"I  c #6F6F6F",
"U  c #222222",
"Y  c #252525",
"T  c #9A9A9A",
"R  c gray43",
"E  c #CDCDCD",
"W  c gray6",
"Q  c #505050",
"!  c #585858",
"~  c #B4B4B4",
"^  c gray20",
"/  c #444444",
"(  c gray58",
")  c #DDDDDD",
"_  c gray16",
"`  c gray89",
"'  c gray46",
"]  c #1E1E1E",
"[  c #BBBBBB",
"{  c gray95",
"}  c #1B1B1B",
"|  c #AFAFAF",
" . c gray69",
".. c gray91",
"X. c gray",
"o. c gray8",
"O. c gray22",
"+. c #101010",
"@. c gray75",
"#. c #EEEEEE",
"$. c #464646",
"%. c #181818",
"&. c #5A5A5A",
"*. c gray87",
"=. c #A0A0A0",
"-. c #A4A4A4",
";. c gray55",
":. c #2F2F2F",
">. c #7E7E7E",
",. c gray29",
"<. c gray76",
"1. c #F9F9FA",
"2. c #F6F6F7",
"3. c gray96",
"4. c #F3F3F4",
"5. c #F2F3F4",
"6. c #F1F2F3",
"7. c #F1F1F2",
"8. c #F0F0F1",
"9. c #EFF0F1",
"0. c #EFEFF0",
"q. c #F7F8F8",
"w. c #F1F2F2",
"e. c #ECECED",
"r. c #E9EAEB",
"t. c #E7E8EA",
"y. c #E6E7E9",
"u. c #E5E6E8",
"i. c #E8E8EA",
"p. c #FAFAFB",
"a. c #F8F9F9",
"s. c #F5F5F6",
"d. c #F4F4F5",
"f. c #F2F2F3",
"g. c #F0F1F2",
"h. c #F1F1F1",
"j. c #F7F7F8",
"k. c #FFFFFE",
/* pixels */
"                                                                                                                                ",
"                                                                                                                                ",
"                                                                                                                                ",
"                                                                                                                                ",
"                                                                                                                                ",
"                                                                                                                                ",
"                                                                                                                                ",
"                                                                                                                                ",
"                                                                                                                                ",
"                                                                                                                                ",
"                                                                                                                                ",
"                                                                                                                                ",
"                                                                                                                                ",
"                                                                                                                                ",
"                                                                                                                                ",
"                                                                                                                                ",
"                                                                                                                                ",
"                                                                                                                                ",
"                                                                                                                                ",
"                                                                                                                                ",
"                                                                                                                                ",
"                                                                                                                                ",
"                                                                                                                                ",
"                                                                                                                                ",
"                        . X o O                                                                                                 ",
"                          + @ # $ %                                                                                             ",
"                            & * = - ; : >                                                                                       ",
"                            , < * * * 1 2 3 4                         5 6 6 7 7 7 8 9                                           ",
"                              0 q * * * * w e r t y                   u i i p p w a s                                           ",
"                . d d d .     . f * g g i * * * h j k l               z * x c v b n m                                           ",
"              . M > N d . d > d B V * g g g i i * * C Z A S   y y d   D * F G % H l d .   d > > > y d N   d N                   ",
"              N J .     d K d y   u L * i g g g g g g * i P I : N > y z i w U Y a T N > d J d y N J d J > J d                   ",
"              N J       > J       z L * = g i * * g g * i a R E N > . u g W Q ! 2 ~ y J M M     . K y d O >                     ",
"              y J N y y d J d   B ^ * g i i g g * * C / ( ) y > N > . z * _ ` d     > > d J d y > J d J > J d                   ",
"                y > > > . d > J ' * g g g g * g ] j [ {   d d > d d   z * } 7 | 3  ...    d > > > y N N   d N                   ",
"                              X.o.* * * * w O.r t y                   u = = w w w +.@.                                          ",
"                            #.$.* * * %.&.3 4                         *.$ $ $ $ =.-.%                                           ",
"                            ;.* = :.>.G >                                                                                       ",
"                          : @ ,.D H                                                                                             ",
"                        . <.X O                                                                                                 ",
"                                                                                                                                ",
"                                                                                                                                ",
"                                                                                                                                ",
"                                                                                                                                ",
"                                                                                                                                ",
"                                                                                                                                ",
"                                                                                                                                ",
"                                                                                                                                ",
"                                                                                                                                ",
"                                                                                                                                ",
"                                                                                                                                ",
"                                                                                                                                ",
"                                                                                                                                ",
"                                                                                                                                ",
"                                y N 1.J 2.3.4.5.5.6.7.8.8.9.0.0.0.0.9.8.8.7.6.5.5.4.3.2.q.1.N y                                 ",
"                              d w.e.r.t.y.y.y.u.u.u.u.u.u.u.u.u.u.u.u.u.u.u.u.u.u.y.y.y.i.r.e.{ d                               ",
"                                . d p.a.K 2.s.d.4.f.6.7.7.7.g.g.g.g.g.h.7.6.f.4.d.s.2.j.M p.d .                                 ",
"                                                            k.k.k.k.                                                            ",
"                                                                                                                                ",
"                                                                                                                                ",
"                                                                                                                                ",
"                                                                                                                                ",
"                                                                                                                                ",
"                                                                                                                                "
};
