/* XPM */
static char *result[] = {
/* columns rows colors chars-per-pixel */
"64 64 54 1 ",
"  c #000000",
". c #0D0D0D",
"X c #0B0C1F",
"o c #121212",
"O c #1B1B1B",
"+ c #0D0E20",
"@ c #0F1022",
"# c #111224",
"$ c #161728",
"% c #1C1D2D",
"& c #222222",
"* c #2B2B2B",
"= c #232433",
"- c #2C2D3C",
"; c #2F303F",
": c #333333",
"> c #31323F",
", c gray23",
"< c #333442",
"1 c #373845",
"2 c #393946",
"3 c #3C3D4A",
"4 c #3F404C",
"5 c #444444",
"6 c #41424D",
"7 c #4D4D4D",
"8 c #454550",
"9 c #4B4B56",
"0 c #535353",
"q c #515259",
"w c #5B5B5B",
"e c #595A62",
"r c #636363",
"t c #6A6A6A",
"y c #6D6E75",
"u c #727273",
"i c #7B7B7B",
"p c #7C7D82",
"a c #858585",
"s c #8A8A8A",
"d c gray58",
"f c #9B9B9B",
"g c #A4A4A4",
"h c #ACACAC",
"j c #B5B5B5",
"k c #BBBBBB",
"l c #C3C3C3",
"z c #CCCCCC",
"x c #D5D5D5",
"c c #DCDCDC",
"v c #E4E4E4",
"b c #ECECEC",
"n c #F3F3F3",
"m c #FFFFFF",
/* pixels */
"mmmmmmmmmmmmmmmmmmmmmmmmmmmmmmmmmmmmmmmmmmmmmmmmmmmmmmmmmmmmmmmm",
"mmmmmmmmmmmmmmmmmmmmvfddddkmmmmmmmmmmbfdddfvmmmmmmmmmmmmmmmmmmmm",
"mmmmmmmmmmmmmmmmmmmml.    OjmmmmmmmmmxO   .lmmmmmmmmmmmmmmmmmmmm",
"mmmmmmmmmmmmmmmmmmmmlo     &lmmmmmmmmcO   .lmmmmmmmmmmmmmmmmmmmm",
"mmmmmmmmmmmmmmmmmmmml.      *zmmmmmmmcO   .lmmmmmmmmmmmmmmmmmmmm",
"mmmmmmmmmmmmmmmmmmmmlo       ,xmmmmmmxO   .lmmmmmmmmmmmmmmmmmmmm",
"mmmmmmmmmmmmmmmmmmmmlo        5vmmmmmxO   .lmmmmmmmmmmmmmmmmmmmm",
"mmmmmmmmmmmmmmmmmmmmlo         7bmmmmcO   .lmmmmmmmmmmmmmmmmmmmm",
"mmmmmmmmmmmmmmmmmmmmlo   o0.    wbmmmxO   olmmmmmmmmmmmmmmmmmmmm",
"mmmmmmmmmmmmmmmmmmmmlo   ozu     tnmmxO   .lmmmmmmmmmmmmmmmmmmmm",
"mmmmmmmmmmmmmmmmmmmmlo   Oxnr     inmxO   .lmmmmmmmmmmmmmmmmmmmm",
"mmmmmmmmmmmmmmmmmmmmlo   Oxmb0    .smcO   .lmmmmmmmmmmmmmmmmmmmm",
"mmmmmmmmmmmmmmmmmmmml.   Oxmmv7    .dxO   .lmmmmmmmmmmmmmmmmmmmm",
"mmmmmmmmmmmmmmmmmmmmlo   Oxmmmc,    oiO   .lmmmmmmmmmmmmmmmmmmmm",
"mmmmmmmmmmmmmmmmmmmmlo   Oxmmmmx,    ..   .lmmmmmmmmmmmmmmmmmmmm",
"mmmmmmmmmmmmmmmmmmmmlo   oxmmmmmz*        .lmmmmmmmmmmmmmmmmmmmm",
"mmmmmmmmmmmmmmmmmmmmlo   Oxmmmmmml&       .lmmmmmmmmmmmmmmmmmmmm",
"mmmmmmmmmmmmmmmmmmmmlo   OxmmmmmmmjO      .lmmmmmmmmmmmmmmmmmmmm",
"mmmmmmmmmmmmmmmmmmmml.   Oxmmmmmmmmho     .lmmmmmmmmmmmmmmmmmmmm",
"mmmmmmmmmmmmmmmmmmmmlo   oxmmmmmmmmmfo    .lmmmmmmmmmmmmmmmmmmmm",
"mmmmmmmmmmmmmmmmmmmmbgfffgbmmmmmmmmmmjffffgvmmmmmmmmmmmmmmmmmmmm",
"mmmmmmmmmmmmmmmmmmmmmmmmmmmmmmmmmmmmmmmmmmmmmmmmmmmmmmmmmmmmmmmm",
"mmmmmmmmmmmmmmmmmmmmmmmmmmmmmmmmmmmmmmmmmmmmmmmmmmmmmmmmmmmmmmmm",
"mmmmmmmmmmmmmmmmmmmmmmmmmmmmmmmmmmmmmmmmmmmmmmmmmmmmmmmmmmmmmmmm",
"mmmmmmmmmmmmmmmmmmmmmmmmmmmmmmmmmmmmmmmmmmmmmmmmmmmmmmmmmmmmmmmm",
"mmmmmmmmmmmmmmmmmmmmmmmmmmmmmmmmmmmmmmmmmmmmmmmmmmmmmmmmmmmmmmmm",
"mmmmmmmmmmmmmmmmmmmmmmmmmmmmmmmhgmmmmmmmmmmmmmmmmmmmmmmmmmmmmmmm",
"mmmmmmmmmmmmmmmmmmmmmmmmmmmmmmjookmmmmmmmmmmmmmmmmmmmmmmmmmmmmmm",
"mmmmmmmmmmmmmmmmmmmmmmmmmmmmmz*  &zmmmmmmmmmmmmmmmmmmmmmmmmmmmmm",
"mmmmmmmmmmmmmmmmmmmmmmmmmmmmc,    ,cmmmmmmmmmmmmmmmmmmmmmmmmmmmm",
"mmmmmmmmmmmmmmmmmmmmmmmmmmmb7      7bmmmmmmmmmmmmmmmmmmmmmmmmmmm",
"mmmmmmmmmmmmmmmmmmmmmmmmmmnt        rnmmmmmmmmmmmmmmmmmmmmmmmmmm",
"mmmmmmmmmmmmmmmmmmmmmmmmmmi.         immmmmmmmmmmmmmmmmmmmmmmmmm",
"mmmmmmmmmmmmmmmmmmmmmmmmmd.          .dmmmmmmmmmmmmmmmmmmmmmmmmm",
"mmmmmmmmmmmmmmmmmmmmmmmmho            ohmmmmmmmmmmmmmmmmmmmmmmmm",
"mmmmmmmmmmmmmmmmmmmmmmml&              Olmmmmmmmmmmmmmmmmmmmmmmm",
"mmmmmmmmmmmmmmmmmmmmmmx:                *xmmmmmmmmmmmmmmmmmmmmmm",
"mmmmmmmmmmmmmmmmmmmmmv5                  5vmmmmmmmmmmmmmmmmmmmmm",
"mmmmmmmmmmmmmmmmmmmmnw                    wbmmmmmmmmmmmmmmmmmmmm",
"mmmmmmmmmmmmmmmmmmmmu                      tmmmmmmmmmmmmmmmmmmmm",
"mmmmmmmmmmmmmmmmmmms.                      .ammmmmmmmmmmmmmmmmmm",
"mmmmmmmmmmmmmmmmmmg.                        .gmmmmmmmmmmmmmmmmmm",
"mmmmmmmmmmmmmmmmmjO                          Ojmmmmmmmmmmmmmmmmm",
"mmmmmmmmmmmmmmmmz*                            *zmmmmmmmmmmmmmmmm",
"mmmmmmmmmmmmmmmc,                              ,cmmmmmmmmmmmmmmm",
"mmmmmmmmmmmmmmb7                                7bmmmmmmmmmmmmmm",
"mmmmmmmmmmmmmnr                                  tnmmmmmmmmmmmmm",
"mmmmmmmmmmmmma.              .:ii,.               immmmmmmmmmmmm",
"mmmmmmmmmmmmd.             OwjbmmbjwO.            .dmmmmmmmmmmmm",
"mmmmmmmmmmmjo           o5dcmmmmmmmmcd5.           ohmmmmmmmmmmm",
"mmmmmmmmmml&          *ulnmmmmmmmmmmmmnli*.         &lmmmmmmmmmm",
"mmmmmmmmmx:        OwhbmmmmmmmmmmmmmmmmmmbhwO        *xmmmmmmmmm",
"mmmmmmmmv7      .2sxmmmmmmmmmmmmmmmmmmmmmmmmxs5.      5vmmmmmmmm",
"mmmmmmmnw     *ukbmmmmmmmmmmmmmmmmmmmmmmmmmmmmnku*.    wnmmmmmmm",
"mmmmmmmu   o0gvmmmmmmmmmmmmmmmmmmmmmmmmmmmmmmmmmmvg0o   tmmmmmmm",
"mmmmmms .,axnmmmmmmmmmmmmmmmmmmmmmmmmmmmmmmmmmmmmmmnxs,. ammmmmm",
"mmmmmg:rjbmmmmmmmmmmmmmmmmmmmmmmmmmmmmmmmmmmmmmmmmmmmmbkt:gmmmmm",
"mmmmbjcmmmmmmmmmmmmmmmmmmmmmmmmmmmmmmmmmmmmmmmmmmmmmmmmmmckbmmmm",
"mmmnmmmmmmnmmmmnnmmmmnmmnmmmmnmmmmnmmnmmmmnmnmmnmnnmmmmnmmmnmnmm",
"eweeeeeweeeeweeeeeeeeeeeeeeeeeeeeeeeeeeweeeqeeeeeeeeeweeeeweeeew",
"++##$+#$##+=%%++$%$%+++++++++++++++++++++++X++++++++XXX+++++++++",
"++=8e926866eyyeeqp9=####@@##########+@+=1<-<<2<-1%-<<<1334323-++",
"###1<2;-<<-19888491@##################@%2323<2323-133<2483323-@#",
"###++######@+@@@@+@######################+#+++@@@@+++##+#+@@+@##"
};
