/* XPM */
static char *xpm_[] = {
/* columns rows colors chars-per-pixel */
"64 64 222 2 ",
"   c #1E1814",
".  c #1F170C",
"X  c #24190F",
"o  c #24140F",
"O  c #241613",
"+  c #231813",
"@  c #2B1C15",
"#  c #211719",
"$  c #34221B",
"%  c #2D201B",
"&  c #382922",
"*  c #282D3F",
"=  c #493729",
"-  c #4C3C31",
";  c #5A4739",
":  c #142F4A",
">  c #1B334C",
",  c #14304D",
"<  c #143454",
"1  c #1C3454",
"2  c #15395B",
"3  c #15385A",
"4  c #0D395F",
"5  c #273648",
"6  c #233C52",
"7  c #3E3D4B",
"8  c #0C3E6B",
"9  c #0B3B65",
"0  c #133C63",
"q  c #133D6A",
"w  c #0B3E73",
"e  c #083F77",
"r  c #113C70",
"t  c #1E415E",
"y  c #274458",
"u  c #0C426B",
"i  c #06446D",
"p  c #184569",
"a  c #054275",
"s  c #0A4173",
"d  c #03427A",
"f  c #094278",
"g  c #184D78",
"h  c #27516E",
"j  c #245378",
"k  c #3D5A72",
"l  c #395368",
"z  c #6B5A4C",
"x  c #796552",
"c  c #445968",
"v  c #566977",
"b  c #45677A",
"n  c #72776B",
"m  c #67757E",
"M  c #797A78",
"N  c #6B686B",
"B  c #464E55",
"V  c #846A57",
"C  c #93715B",
"Z  c #A5625B",
"A  c #A3735E",
"S  c #917869",
"D  c #A76662",
"F  c #BB666A",
"G  c #A27263",
"H  c #9C836B",
"J  c #988676",
"K  c #A48B77",
"L  c #A9947C",
"P  c #BB9B7C",
"I  c #B5977B",
"U  c #AC886C",
"Y  c #BFA07C",
"T  c #C09F7B",
"R  c #C7A47E",
"E  c #063F84",
"W  c #044281",
"Q  c #034789",
"!  c #1A5B82",
"~  c #145F90",
"^  c #166795",
"/  c #0F6C99",
"(  c #2A6C9A",
")  c #2A719D",
"_  c #376C95",
"`  c #0D6EAB",
"'  c #0B6AA7",
"]  c #156DA5",
"[  c #126DAA",
"{  c #1C6DA4",
"}  c #0B71AE",
"|  c #1671A8",
" . c #0B6FB1",
".. c #0576BC",
"X. c #0479BC",
"o. c #0875B8",
"O. c #377EAB",
"+. c #2372A4",
"@. c #767D82",
"#. c #52748B",
"$. c #0376C2",
"%. c #0379C5",
"&. c #0176C8",
"*. c #3980AC",
"=. c #6A8197",
"-. c #778C90",
";. c #4887AA",
":. c #558AA8",
">. c #5093B8",
",. c #648DA3",
"<. c #6E96AC",
"1. c #699EBE",
"2. c #759BB3",
"3. c #7993A4",
"4. c #6BA2BC",
"5. c #64A2BA",
"6. c #7CA4BA",
"7. c #75A5BA",
"8. c #5EA0C3",
"9. c #68A7CA",
"0. c #79ABC4",
"q. c #7EB3C9",
"w. c #75B8DA",
"e. c #71B0D0",
"r. c #79BDE5",
"t. c #7FC5DC",
"y. c #7EC5E7",
"u. c #7FCCF4",
"i. c #7FCEF9",
"p. c #7ED0F5",
"a. c #7FD0FA",
"s. c #898A88",
"d. c #938D89",
"f. c #999388",
"g. c #979797",
"h. c #879291",
"j. c #A79888",
"k. c #B69C84",
"l. c #A79C97",
"z. c #9AA39D",
"x. c #8CA09E",
"c. c #BAA387",
"v. c #ACA799",
"b. c #BEAC94",
"n. c #B5AB97",
"m. c #BCB29D",
"M. c #849DA2",
"N. c #8AA7AE",
"B. c #85A9BA",
"V. c #96ABAD",
"C. c #A7A9A4",
"Z. c #B3ADA9",
"A. c #B8B0A7",
"S. c #BBBBB6",
"D. c #AFB4B0",
"F. c #C6A688",
"G. c #CCB18C",
"H. c #D5B68E",
"J. c #C4AC94",
"K. c #CAAB93",
"L. c #CCB498",
"P. c #CAB697",
"I. c #D3B394",
"U. c #DBBD9D",
"Y. c #D4B79A",
"T. c #D1AD85",
"R. c #E2BD99",
"E. c #C8B8A5",
"W. c #D9BDA4",
"Q. c #C4B5AC",
"!. c #DEC19D",
"~. c #D7C09F",
"^. c #E3C39C",
"/. c #EAC399",
"(. c #D9C2A5",
"). c #C0C2BF",
"_. c #E4C4A4",
"`. c #EBCBA3",
"'. c #EDCCA9",
"]. c #E5C7A7",
"[. c #F1CDA5",
"{. c #F1CCAA",
"}. c #EFD2AC",
"|. c #FCD5A6",
" X c #F4D4AC",
".X c #FBD4AB",
"XX c #F6D9AD",
"oX c #FAD8AD",
"OX c #F7D6A7",
"+X c #E8CBB2",
"@X c #F5D5B1",
"#X c #FAD6B1",
"$X c #F9D9B3",
"%X c #F0D9B6",
"&X c #E4D2B1",
"*X c #84ACC5",
"=X c #84B3CD",
"-X c #88B1C1",
";X c #83BDD7",
":X c #83BBDC",
">X c #85B7D4",
",X c #87C2DD",
"<X c #84C3E2",
"1X c #84C5E9",
"2X c #85CBEB",
"3X c #89CDEC",
"4X c #89C6E3",
"5X c #86D0ED",
"6X c #83CEF5",
"7X c #89CDF3",
"8X c #83CEF9",
"9X c #84D1F5",
"0X c #82D1FA",
"qX c #89D1F2",
"wX c #93C7E3",
"eX c #C7C9C7",
"rX c #D7D9D6",
"tX c #D1D0CE",
"yX c #FAFAF7",
"uX c #EDF0F0",
"iX c None",
"pX c black",
/* pixels */
"iXiXiXiXiXiXiXiXiXiXiXiXiXiXiXiXiXiXiXiXiXiXiXiXiXiXiXiXiXiXiXiXiXiXiXiXiXiXiXiXiXiXiXiXiXiXiXiXiXiXiXiXiXiXiXiXiXiXiXiXiXiXiXiX",
"iXiXiXiXiXiXiXiXiXiXiXiXiXiXiXiXiXiXiXiXiXiXiXiXiXiXiXiXiXiXiXiXiXiXiXiXiXiXiXiXiXiXiXiXiXiXiXiXiXiXiXiXiXiXiXiXiXiXiXiXiXiXiXiX",
"iXiXiXiXiXiXiXiXiXiXiXiXiXiXiXiXiXiXiXiXiXiXiXiXiXiXiXiXiXiXiXiXiXiXiXiXiXiXiXiXiXiXiXiXiXiXiXiXiXiXiXiXiXiXiXiXiXiXiXiXiXiXiXiX",
"iXiXiXiXiXiXiXiXiXiXiXiXiXiXiXiXiXiXiXiXiXiXiXiXiXiX3 r r < iXiXiXiXiXiXiXiXiXiXiXiXiXiXiXiXiXiXiXiXiXiXiXiXiXiXiXiXiXiXiXiXiXiX",
"iXiXiXiXiXiXiXiXiXiXiXiXiXiXiXiXiXiXiXiXiXiXiXiXiXq f W W w 0 iXiXiXiXiXiXiXiXiXiXiXiXiXiXiXiXiXiXiXiXiXiXiXiXiXiXiXiXiXiXiXiXiX",
"iXiXiXiXiXiXiXiXiXiXiXiXiXiXiXiXiXiXiXiXiXiXiXiX0 f f d d d e 9 < iXiXiXiXiXiXiXiXiXiXiXiXiXiXiXiXiXiXiXiXiXiXiXiXiXiXiXiXiXiXiX",
"iXiXiXiXiXiXiXiXiXiXiXiXiXiXiXiXiXiXiXiXiXiXiX3 e d d d f d d d 9 < iXiXiXiXiXiXiXiXiXiXiXiXiXiXiXiXiXiXiXiXiXiXiXiXiXiXiXiXiXiX",
"iXiXiXiXiXiXiXiXiXiXiXiXiXiXiXiXiXiXiXiXiXiX0 e d d d d W d f d W 8 3 iXiXiXiXiXiXiXiXiXiXiXiXiXiXiXiXiXiXiXiXiXiXiXiXiXiXiXiXiX",
"pXpXpXpXpXpXpXpXiXiXiXiXiXiXiXiXiXiXiXiXiX1 8 d d d d a d d d d d d e 9 iXiXiXiXiXiXiXiXiXiXiXiXiXiXiXiXiXiXiXiXiXiXiXiXiXiXiXiX",
"pXpXpXpXpXpXpXpXiXiXiXiXiXiXiXiXiXiXiXiX< q d d d d d d a d d d d d d d 8 , iXiXiXiXiXiXiXiXiXiXiXiXiXiXiXiXiXiXiXiXiXiXiXiXiXiX",
"pXpXpXpXpXpXpXpXiXiXiXiXiXiXiXiXiXiXiX> q a d d d d d d d d d d d d d d d u 9 iXiXiXiXiXiX5 pXpXiXiXiX6 5 pXiXiXiXiXiXiXiXiXiXiX",
"pXpXpXpXpXpXpXpXiXiXiXiXiXiXiXiXiXiX1 q f d f d d d d d d d d d d a d a d d s 0 iXiXiXiX< 6 pXpXiXiX3 3 pXpXiXiXiXiXiXiXiXiXiXiX",
"pXpXpXpXpXpXpXpXiXiXiXiXiXiXiXiX> 3 p a f s i a a a d W W f d a a d d d a d d a 8 2 iXiX2 9 pXpX6 q 8 3 iXiXiXiXiXiXiXiXiXiXiXiX",
"pXpXpXpXpXpXpXpXiXiXiXiX> 3 9 w f d d a p v v k h p p p w u a d a d f s a d d W d f 8 q f u pX1 q f 0 iXiXiXiXiXiXiXiXiXiXiXiXiX",
"pXpXpXpXpXpXpXpXiXiX2 0 9 w f d d d e 8 v +X[.!.P.A.v.s.m b h q 8 9 e d d e u u u e W W f r q f Q 8 1 iXiXiXiXiXiXiXiXiXiXiXiXiX",
"pXpXpXpXpXpXpXpX< u f d d d a d d d e q h.L.c.J.J.J.].$X X'._.J.f.-.b l y p 2 0 0 p w d d d d d f 0 iXiXiXiXiXiXiXiXiXiXiXiXiXiX",
"pXpXpXpXpXpXpXpXu a a d d d d Q d d s y d.Y.'.$X|./.G.G. XXXoX#XoX$X XJ.J j.M v c y 2 u a a a s 0 iXiXiXiXiXiXiXiXiXiXiXiXiXiXiX",
"pXpXpXpXpXpXpXpXu a a d d d d d i i 0 n [.oX^.H.I.Y.(.I.F.`..XR. X$X!.F.Y.K.K.k.c.J.j.f.B : : , iXiXiXiXiXiXiXiXiXiXiXiXiXiXiXiX",
"pXpXpXpXpXpXpXpX2 i d d d d d d e q y m._.P P H.R.U.R F.U.U.|.T.`. XR Y H.{.$X|.c.P.$XW.iXiXiXiXiXiXiXiXiXiXiXiXiXiXiXiXiXiXiXiX",
"pXpXpXpXpXpXpXpXiXp d d d d d d E r v b.I !.XX X_.Y.b.K F.XXOX.X$X_.T ^.U.c.I I./.R {.P iXiXiXiXiXiXiXiXiXiXiXiXiXiXiXiXiXiXiXiX",
"pXpXpXpXpXpXpXpXiX> s d d d d a d q n k.[.$XY.x = $ % & ; W.$X.X.XH.I.C = @ @ $ x ].W.iXiXiXiXiXiXiXiXiXiXiXiXiXiXiXiXiXiXiXiXiX",
"pXpXpXpXpXpXpXpXiXiX3 u W W d a d l J. XXXG.- O O O +   O x  X.X.X[.x O O O O O @ K j.iXiXiXiXiXiXiXiXiXiXiXiXiXiXiXiXiXiXiXiXiX",
"pXpXpXpXpXpXpXpXiXiXiX< g s e e q s.$X|. Xz o   # @ X + # ; ]..X#Xc.@ O O @ O + + V k.iXiXiXiXiXiXiXiXiXiXiXiXiXiXiXiXiXiXiXiXiX",
"pXpXpXpXpXpXpXpXiXiXiX7 C.s.t i l E.oX|._.= O # O O X O o z .X|..XI @ O O # + O & J. XW.k.iXiXiXiXiXiXiXiXiXiXiXiXiXiXiXiXiXiXiX",
"pXpXpXpXpXpXpXpXpXpXpXI  X Xs.6 M %XOX.X'.x o # O #   . = F.oX.X.X_.; X o + @ - K {..X#X@XF.iXiXiXiXiXiXiXiXiXiXiXiXiXiXiXiXiXiX",
"pXpXpXpXpXpXpXpXpXpXiXI..X X}.j.P.@X.X.X.XR.C ; = - ; V K. X.X.X.X XW.I H G L !.#X.X.X.X.X@Xk.iXiXiXiXiXiXiXiXiXiXiXiXiXiXiXiXiX",
"pXpXpXpXpXpXpXpXiXiXiX_..XoX#X$X.X|..X.X.X.X#X'.^.^.`. X.XOXOX|..X.X_.I }.$XoX|..X.X.X.X.X.X_.iXiXiXiXiXiXiXiXiXiXiXiXiXiXiXiXiX",
"pXpXpXpXpXpXpXpXiXiXiX{..X.XOX.X.X.X.X.X.X.X.X.XoX|.|..X.X.X.X|.|.|..XH c.$XXXXX{..X.X.X.X.X Xk.iXiXiXiXiXiXj.j.iXiXiXiXiXiXiXiX",
"pXpXpXpXpXpXpXpXiXiXP  X|.OXOX.X.X#X.X.X.X#X#X.XoX.XOXoX.X.X.X.X|..X#X/.U..X|..X.X.X.X.X.X.X@Xj.iXiXiXc.V P.W.L iXiXiXiXiXiXiXiX",
"pXpXpXpXpXpXpXpXiXiXK.@X|.|.OX$X'.R.{.OX|.|.OXOXoXXX@X X.X.X|..X.X.X`.F.U I R..X.X#X.X.X.XoX+XJ iXiXJ ].J.I V iXiXiXiXiXiXiXiXiX",
"pXpXpXpXpXpXpXpXiXiXK.$X[.[.!.c.S pXJ f.b.W.+X X$X$XXXOX|.OX.X.X#XI.A Z D Z G {.#X.X.XoX.X@Xm.3.*XM K I H U.W.iXiXiXiXiXiXiXiXiX",
"pXpXpXpXpXpXpXpXiXiXiXK.I iXiX3.>X:Xw.>X>X*XB.C.v.P.(.`.[.%X$X.X{.A D F F D D [..X.X.XoX$X(.g.0.0.g.Y.Y.K _.U.iXiXiXiXiXiXiXiXiX",
"pXpXpXpXpXpXpXpXiXiXiXiXpXpX,.4X6X6X6X6X0X8Xu.2X<X;X-Xh.j.F.!.^._.G Z D Z G W.#XoX#X$XOXP.x.,Xe.5.B.N iXiXiXiXiXiXiXiXiXiXiXiXiX",
"pXpXpXpXpXpXpXpXiXiXiXiXpXpX1.9X8X6X2X<X,X,X2X0X8X9X9X<XB.z.n.G.j.s.M J j.Y.].`./.!.E.n.N.1X6Xp.t.7.iXiXiXiXiXiXiXiXiXiXiXiXiXiX",
"pXpXpXpXpXpXpXpXiXiXiXiXpXpX:X7X7X=XN.v.C.s.M.<X9Xu.8Xu.w.,XN.C.N.0.=X0.-XB.N.M.N.3.0.:X2X9X9X,X7.iXiXiXiXiXiXiXiXiXiXiXiXiXiXiX",
"pXpXpXpXpXpXpXpXiXiXiXiXiX6.3X4XM.Q.'.XXXXc.f.0.9X6X7X<Xt.5Xe.r.2X>X1.w.6X8X8X7X<X4.,Xi.a.2Xq.iXiXiXiXiXiXiXiXiXiXiXiXiXiXiXiXiX",
"pXpXpXpXpXpXpXpXiXiXiXiXiX<Xw.7.-.(.$X@XXXOXj.*X7X9X8X6X6X6Xe.r.8X2Xy.6X6X9X6X9X6Xw.7.3Xw.2.iXiXiXiXiXiXiXiXiXiXiXiXiXiXiXiXiXiX",
"pXpXpXpXpXpXpXpXiXiXiXiX3.7X<X,X2.j.|..X%X|.(.*X5X9X6X6X8X6X6X8X8X6X6X8X6X6X6X6X8X8X1.@.pXiXiXiXiXiXiXiXiXiXiXiXiXiXiXiXiXiXiXiX",
"pXpXpXpXpXpXpXpXpXpXiXiX=X7Xw.r.=Xv./. X%XXXm.B.p.u.6X6X6X6X0X6X8X6X6X6X6Xu.6X6X7X7X,XpXpXpXiXiXiXiXiXiXiXiXiXiXiXiXiXiXiXiXiXiX",
"pXpXpXpXpXpXpXpXpXpXpX,.3X1Xr.e.>X7.M v.A.z.7.1X3X6X8X6X6X6X6X8X6X6X8X6X6X6X6X6X7X7X7X2.pXpXiXiXiXiXiXiXiXiXiXiXiXiXiXiXiXiXiXiX",
"pXpXpXpXpXpXpXpXiXiXiX:.2X3X6Xr.1X0.<.,Xt.y.u.5X6X0X6X6X6X8X6X6X6X6X6X6X8X6X6X8X6Xi.8X=XiXiXiXiXiXiXiXiXiXiXiXiXiXiXiXiXiXiXiXiX",
"pXpXpXpXpXpXpXpXiXiXiXiX7.5X6X6X0.,.1X9X6X6X6X6X6X8X6X6X6X6X6X6X8X6X6X8X6X6X6X6X6X6X6X<XiXiXiXiXiXiXiXiXiXiXiXiXiXiXiXiXiXiXiXiX",
"pXpXpXpXpXpXpXpXiXiXiXiXiXB.>X6.#.:X6X6X6X6X6X6X6X6X6X6X6X6X6X8X6X6X6X6X6X6X6X6Xa.2X6X3X<.iXpXpXiXiXiXiXiXiXiXiXiXiXiXiXiXiXiXiX",
"pXpXpXpXpXpXpXpXiXiXiXiXiXiXiXiX<.2X6X8X6X6X6X6X8X6X6X6X6X8X6X6Xu.6X8X6X8X6X6X8Xa.9X9X3X7.pXpXpXiXiXiXiXiXiXiXiXiXiXiXiXiXiXiXiX",
"pXpXpXpXpXpXpXpXiXiXiXiXiXiXiXiX4.7X3X9Xa.u.6X6X0X6X6X6X6X8X6X6X0X6X6X6X6X6X6X6X6X2Xp.9X7.iXpXpXiXiXiXiXiXiXiXiXiXiXiXiXiXiXiXiX",
"pXpXpXpXpXpXpXpXiXiXiXiXiXiXiXiX0.qX3X6X6X7X7X6X7X6X6X9X6X9X9X0X0X9X3X7X8X6X9X8X6X5X5X5X*XiXpXpXiXiXiXiXiXiXiXiXiXiXiXiXiXiXiXiX",
"pXpXpXpXpXpXpXpXiXiXiXiXiXiXiXiX*X7X6X3X7X6Xu.6X7X9X9X9X9X3X1Xw.9.>.8.w.1Xy.w.1.;.;.;.>.v pXpXpXiXiXiXiXiXiXiXiXiXiXiXiXiXiXiXiX",
"pXpXpXpXpXpXpXpXiXiXiXiXiXiXiXiX,.w.w.9.8.>.O.O.>.e.w.9.9.>.O.+.[ ] { ( _ ( ( ` ` ` } ] p pXpXpXiXiXiXiXiXiXiXiXiXiXiXiXiXiXiXiX",
"pXpXpXpXpXpXpXpXpXpXpXpXpXpXpXpXj +.+.| [ } ..o.` ] { | [ ` o...$.%.$.........$.$.%.%.o.j iXiXiXiXiXiXiXiXiXiXiXiXiXiXiXiXiXiXiX",
"pXpXpXpXpXpXpXpXpXpXpXpXpXpXpXpX' %.X.&.$.$.&.&.%.....$.$.%.} ` o.$.$.X.......X.X.X.X.X.~ iXiXiXiXiXiXiXiXiXiXiXiXiXiXiXiXiXiXiX",
"pXpXpXpXpXpXpXpXpXpXpXpXpXpXpXpX` X...&.$.....o.........o.| ~ ^ ] | ` | ] ] ] | | [ ] / h iXiXiXiXiXiXiXiXiXiXiXiXiXiXiXiXiXiXiX",
"pXpXpXpXpXpXpXpXpXpXpXpXpXpXpXj [ [  .[ { { ) ) ( ^ ^ / ^ ! iXiXiXiXiXm C.v.m.m.v.-.iXiXiXiXiXiXiXiXiXiXiXiXiXiXiXiXiXiXiXiXiXiX",
"pXpXpXpXpXpXpXpXpXpXpXpXpXpXpXpXpXpXb z.m.E.W.(.j.pXiXiXiXiXiXiXiXiXiXS &XXXOXoX XI iXiXiXiXiXiXiXiXiXiXiXiXiXiXiXiXiXiXiXiXiXiX",
"pXpXpXpXpXpXpXpXpXpXpXpXpXpXpXpXpXpXiX'.oXoX.X+XJ pXiXiXiXiXiXiXiXiXiXiXW.oX|.oX(.iXiXiXiXiXiXiXiXiXiXiXiXiXiXiXiXiXiXiXiXiXiXiX",
"pXpXpXpXpXpXpXpXpXpXpXpXpXpXpXpXpXpXpX(.|.|.#XK.iXiXiXiXiXiXiXiXiXiXiXiXL (.`.'.c.iXiXiXiXiXiXiXiXiXiXiXiXiXiXiXiXiXiXiXiXiXiXiX",
"pXpXpXpXpXpXpXpXpXpXpXpXpXpXpXpXpXpXpXJ.'.'.].K iXiXiXiXiXiXiXiXiXiXiXiXM Q.Q.A.x iXiXiXiXiXiXiXiXiXiXiXiXiXiXiXiXiXiXiXiXiXiXiX",
"pXpXpXpXpXpXpXpXpXpXpXpXpXpXpXpXpXpXpXJ A.Q.l.pXiXiXiXiXiXiXiXiXiXiXiXiXd.uXyXtXpXpXpXpXpXpXiXiXiXiXiXiXiXiXiXiXiXiXiXiXiXiXiXiX",
"pXpXpXpXpXpXpXpXpXpXpXpXpXpXpXpXpXpXpXl.yXyXZ.iXiXiXiXiXiXiXiXiXiXiXiXiXiXrXyXC.N pXpXpXpXpXiXiXiXiXiXiXiXiXiXiXiXiXiXiXiXiXiXiX",
"pXpXpXpXpXpXpXpXpXpXpXpXpXpXpXpXpXpXpXz.rXeXiXiXiXiXiXiXiXiXiXiXiXiXiXiXN z.S.D.Z.pXiXiXpXiXiXiXiXiXiXiXiXiXiXiXiXiXiXiXiXiXiXiX",
"pXpXpXpXpXpXpXpXpXpXpXpXpXpXpXpXpXd.S.tXeXeXd.iXiXiXiXiXiXiXiXiXiXiXiXiXd.).eXrXrXtXeXZ.d.iXiXiXiXiXiXiXiXiXiXiXiXiXiXiXiXiXiXiX",
"pXpXpXpXpXpXpXpXpXpXpXpXpXpXS V.eXeXtXeXQ.D.s.iXiXiXiXiXiXiXiXiXiXiXiXiXiXiXiXiXiXiXiXiXiXiXiXiXiXiXiXiXiXiXiXiXiXiXiXiXiXiXiXiX",
"pXpXpXpXpXpXpXpXpXpXpXpXpXpXpXpXpXpXpXpXpXiXiXiXiXiXiXiXiXiXiXiXiXiXiXiXiXiXiXiXiXiXiXiXiXiXiXiXiXiXiXiXiXiXiXiXiXiXiXiXiXiXiXiX",
"pXpXpXpXpXpXpXpXpXpXpXpXpXpXpXpXpXpXpXpXpXpXiXiXiXiXiXiXiXiXiXiXiXiXiXiXiXiXiXiXiXiXiXiXiXiXiXiXiXiXiXiXiXiXiXiXiXiXiXiXiXiXiXiX",
"pXpXpXpXpXpXpXpXpXpXpXpXpXpXpXpXpXpXpXpXpXpXiXiXiXiXiXiXiXiXiXiXiXiXiXiXiXiXiXiXiXiXiXiXiXiXiXiXiXiXiXiXiXiXiXiXiXiXiXiXiXiXiXiX"
};
