/* XPM */
static char *abc38486d5eb464c9a31a573ad4d12295Rfh870fIZ6wBO32[] = {
/* columns rows colors chars-per-pixel */
"64 64 249 2 ",
"   c black",
".  c black",
"X  c black",
"o  c black",
"O  c black",
"+  c black",
"@  c black",
"#  c black",
"$  c black",
"%  c black",
"&  c black",
"*  c black",
"=  c black",
"-  c black",
";  c black",
":  c black",
">  c black",
",  c black",
"<  c black",
"1  c black",
"2  c black",
"3  c black",
"4  c black",
"5  c black",
"6  c black",
"7  c black",
"8  c black",
"9  c black",
"0  c black",
"q  c black",
"w  c black",
"e  c black",
"r  c black",
"t  c black",
"y  c black",
"u  c black",
"i  c black",
"p  c black",
"a  c black",
"s  c black",
"d  c black",
"f  c black",
"g  c black",
"h  c black",
"j  c black",
"k  c black",
"l  c black",
"z  c None",
"x  c black",
"c  c black",
"v  c black",
"b  c black",
"n  c black",
"m  c black",
"M  c black",
"N  c black",
"B  c black",
"V  c black",
"C  c black",
"Z  c black",
"A  c black",
"S  c black",
"D  c black",
"F  c black",
"G  c black",
"H  c black",
"J  c black",
"K  c black",
"L  c black",
"P  c black",
"I  c black",
"U  c black",
"Y  c black",
"T  c black",
"R  c black",
"E  c black",
"W  c black",
"Q  c black",
"!  c black",
"~  c black",
"^  c black",
"/  c black",
"(  c black",
")  c black",
"_  c black",
"`  c black",
"'  c black",
"]  c black",
"[  c black",
"{  c black",
"}  c black",
"|  c black",
" . c black",
".. c black",
"X. c black",
"o. c black",
"O. c black",
"+. c black",
"@. c black",
"#. c black",
"$. c black",
"%. c black",
"&. c black",
"*. c black",
"=. c black",
"-. c black",
";. c black",
":. c black",
">. c black",
",. c black",
"<. c black",
"1. c #0C0403",
"2. c #0B0303",
"3. c #8C2B23",
"4. c #8E2B23",
"5. c #170706",
"6. c #BB392E",
"7. c #BD3A2F",
"8. c #190706",
"9. c #050101",
"0. c #3D120F",
"q. c #C53C31",
"w. c #C63C31",
"e. c #3E130F",
"r. c #0A0303",
"t. c #0D0403",
"y. c #2D0E0B",
"u. c #541A15",
"i. c #78251E",
"p. c #952D25",
"a. c #A73329",
"s. c #C03B30",
"d. c #D24034",
"f. c #C13B30",
"g. c #79251E",
"h. c #0E0403",
"j. c #070202",
"k. c #300F0C",
"l. c #6F221C",
"z. c #A63329",
"x. c #C83D31",
"c. c #D64135",
"v. c #D74135",
"b. c #D14034",
"n. c #C83D32",
"m. c #CD3E33",
"M. c #C93D32",
"N. c #70221C",
"B. c #310F0C",
"V. c #090302",
"C. c #421410",
"Z. c #922D24",
"A. c #C73D31",
"S. c #D74235",
"D. c #CB3E32",
"F. c #AB342A",
"G. c #822820",
"H. c #5B1C17",
"J. c #2A0D0A",
"K. c #531915",
"L. c #2B0D0B",
"P. c #3F1310",
"I. c #5C1C17",
"U. c #832820",
"Y. c #AC342B",
"T. c #932D24",
"R. c #431410",
"E. c #010000",
"W. c #34100D",
"Q. c #922C24",
"!. c #CE3F33",
"~. c #D44135",
"^. c #B1362C",
"/. c #71231C",
"(. c #35100D",
"). c #100504",
"_. c #180706",
"`. c #BC392F",
"'. c #72231C",
"]. c #6C211B",
"[. c #C43C30",
"{. c #D54135",
"}. c #591B16",
"|. c #8D2B23",
" X c #5A1B16",
".X c #C43C31",
"XX c #6D211B",
"oX c #260C09",
"OX c #982E26",
"+X c #69201A",
"@X c #160705",
"#X c #992F26",
"$X c #270C0A",
"%X c #38110E",
"&X c #9F3127",
"*X c #320F0C",
"=X c #A03128",
"-X c #822720",
";X c #150605",
":X c #060202",
">X c #AC342A",
",X c #5D1C17",
"<X c #942D25",
"1X c #110504",
"2X c #3D130F",
"3X c #080202",
"4X c #671F1A",
"5X c #BD392F",
"6X c #BF392F",
"7X c #992D25",
"8X c #350F0D",
"9X c #2C0B09",
"0X c #A22A23",
"qX c #85231D",
"wX c #310D0B",
"eX c #531914",
"rX c #060201",
"tX c #531512",
"yX c #43110E",
"uX c #0A0202",
"iX c #CD3F33",
"pX c #A83329",
"aX c #060101",
"sX c #0D0303",
"dX c #401310",
"fX c #040101",
"gX c #832821",
"hX c #2C0E0B",
"jX c #36110D",
"kX c #CC3E32",
"lX c #73231D",
"zX c #6F221B",
"xX c #B2362C",
"cX c #5A1C16",
"vX c #AD352B",
"bX c #6A201A",
"nX c #080302",
"mX c #33100D",
"MX c #A13128",
"NX c #992E26",
"BX c #0A0302",
"VX c #73231C",
"CX c #D34034",
"ZX c #3F130F",
"AX c #330F0D",
"SX c #160706",
"DX c #36100D",
"FX c #2C0D0B",
"GX c white",
/* pixels */
"                                                            . X X .                                                             ",
"                                                          o O + + @ o                                                           ",
"                                                        # $ <.1.1.<.@ #                                                         ",
"                                                        % & 2.3.4.1.& *                                                         ",
"                                              . X = - ; : > 5.6.7.8.> , < 1 2 X .                                               ",
"                                          3 4 5 6 7 <.<.9.2.0.q.w.e.r.9.<.<.8 & 9 0 3                                           ",
"                                      q w e r <.t.y.u.i.p.a.s.d.d.f.a.p.g.u.y.h.<.t e y u                                       ",
"                                  i p a <.j.k.l.z.x.c.v.b.n.m.d.d.m.M.b.v.c.n.a.N.B.j.<.s p X                                   ",
"                              d f g <.V.C.Z.A.S.D.F.G.H.e.J.K.M.M.u.L.P.I.U.Y.D.S.x.T.R.V.<.h j d                               ",
"                            o @ k E.W.Q.!.~.^./.(.).<.<.l z _.`.`._.z l <.E.).(.'.^.~.!.T.W.E.k @ o                             ",
"                          x c <.).].[.{.F.}.5.<.t a v b n m 1.|.3.1.m n b v a t <.5. XY.{..XXX).<.c x                           ",
"                        M g <.oXOX{.s.+X@X<.N B V C Z     O <.1.1.<.O     Z C A B N <.@X+Xf.{.#X$X<.g M                         ",
"                      M e <.%X^.c.&X*X<.S 9 D F           o O G G O o           F D 9 S <.*X=Xc.^.%X<.e M                       ",
"                    x g <.e.6.d.-X;X<.H J F                 # K K #                 F J L <.;XG.d.6.P.<.g x                     ",
"                  o c <.%X6.b./.V.P I X                                                 X I P V./.b.6.%X<.c o                   ",
"                d @ <.oX^.d./.:Xk U Y                                                     Y U S :X/.d.^.$X<.@ d                 ",
"                j k ).OXc.G.V.k T .                                                         # R k V.G.c.#X).k f                 ",
"              i h E.].{.&X;XP U .                                                             # U P ;X&X{.XXE.g i               ",
"              p <.W.[.f.*X<.I Y                                                                 Y I <.*Xf..XW.<.p               ",
"            u s V.Z.{.+X<.L X                                                                     X L <.+X{.Z.V.a q             ",
"            y <.C.!.Y.@XS J                                                                         J S @XF.!.C.<.w             ",
"          3 e j.T.~.}.<.9 F                                                                         F 9 <.}.~.T.j.e E           ",
"          0 t B.x.^.5.N D                                                                             D N 5.^.x.B.r 4           ",
"        . 9 <.l.S.'.<.B F                                                                             F B <./.S.l.<.5 .         ",
"        X & t.z.D.(.t V                                                                                 V t (.D.z.t.6 i         ",
"        = 8 y.x.>X).a C                                 W Q Q Q Q Q ! Z     W ~                         C a ).F.x.y.7 =         ",
"        1 <.u.c.U.E.v Z                               W ^ / ( ( ( ) H !   W B _ ` '                     Z v E.G.c.u.<.-         ",
"        ; <.i.v.,X<.]                                 Q / <.[ ( ( ) H !   ~ { <.> } | Z                   ] <.I.v.i.<.;         ",
"    # % , 9.<Xb.P.l  .                                Q ( [ ..% Q Q ! Z     j 7 <.<.X.o.M                  .l e.b.<X9.: * #     ",
"  o @ & > r.a.M.L.z O.$ +.                            Q ( ( !               @.#.<.j.1X<.[ $.%.        o @ O.z J.n.a.2.> & $ o   ",
". @ <.1._.2Xs.m.u._.1.<.$ .                           Q ( [ ..% Q Q ! Z       &.( 3X4Xu.t.<.& - o   . $ <.1._.K.m.s.2X_.1.<.O . ",
"X + 1.|.`.q.d.d.M.5X|.1.6 E                           Q *.z [ ( ( ) H !         p <.(.6X7X8X<.<.=.-.K 6 1.|.`.M.d.d.q.`.|.1.+ X ",
"X + 1.|.`.q.d.d.M.`.3.1.6 E                           Q *.z [ ( ( ) H !         p <.9X0XqXwX<.<.=.-.K 6 1.|.`.M.d.d.q.`.3.1.+ X ",
". O <.1._.2Xs.m.eX_.1.<.$ .                           Q ( [ ..% Q Q ! Z       &.( rXtXyXuX<.& - o   . $ <.1._.u.iXs.2X_.1.<.O . ",
"  o @ & > 2.pXn.J.z O.@ o                             Q ( ( !               @.#.<.aXsX<.[ $.%.        o @ O.z L.M.a.r.> & @ o   ",
"    # * : 9.p.b.e.l n                                 Q ( [ ..% Q Q ! Z     j 7 <.<.X.o.M                  .l dXb.<XfX: * #     ",
"        ; <.g.v.H.<.]                                 Q / <.[ ( ( ) H !   ~ { <.> } | Z                   ] <.,Xv.i.<.;         ",
"        - <.u.c.G.E.v Z                               W ^ / ( ( ( ) H !   W B ;.` '                     Z v E.gXc.K.<.-         ",
"        = 7 y.x.F.).a C                                 W Q Q Q Q Q ! Z     W ~                         C a 1XY.A.hX7 =         ",
"        X 6 h.a.D.(.t V                                                                                 V t jXkXz.t.6 i         ",
"        . 5 <.N.S./.<.B F                                                                             @.v <.lXS.zX<.5 .         ",
"          4 r B.x.^.5.N D                                                                             D N _.xXA.k.r 4           ",
"          3 e j.T.~.}.<.9 F                                                                         F #.<.cX~.Z.j.e E           ",
"            w <.C.!.F.@XS J                                                                         :.S 5.vXiXC.<.w             ",
"            q s V.Z.{.+X<.H X                                                                     X H <.bX{.Q.nXa q             ",
"              p <.W.[.f.*X<.I Y                                                                 Y I <.mXf.[.mX<.p               ",
"              i g E.].{.&X;XP U .                                                             . U P @XMX{.].E.g i               ",
"                f S ).NXc.G.V.k T .                                                         . T k BXU.c.OX).S f                 ",
"                d O <.oX^.d.'.j.k U Y                                                     Y U k j.VXCX^.oX<.O d                 ",
"                  o c <.%X6.b.'.V.P I X                                                 X I P BXVXb.6.%X<.c >.                  ",
"                    x g <.ZX6.CXG.;X<.H :.F                 # K K #                 F J H <.@XU.CX6.P.<.g x                     ",
"                      M e <.%X^.c.=XAX<.S 9 D @.          >.,.+ + ,.>.          F D 9 S <.mXMXc.^.%X<.e M                       ",
"                        M g <.oXOX{.f.bXSX<.N v V C Z     O <.1.1.<.O     Z C V B N <.5.bXf.{.#XoX<.g M                         ",
"                          x c <.).].[.{.Y. X5.<.t a v ] n m 1.|.|.1.m n ] v a t <.5.cXvX{.[.].).<.c x                           ",
"                            >.O S E.mXQ.iX~.xXVXDX).E.<.l z _.5X`._.z l <.E.1XDXVXxX~.!.Z.W.E.k @ >.                            ",
"                              d f g <.nXC.Z.A.S.kXY.U.,XdXL.u.M.M.u.L.dX,XgXY.kXS.x.T.C.V.<.g f d                               ",
"                                  i p a <.j.k.zXz.A.c.v.b.M.m.d.d.iXM.b.v.c.x.z.N.B.j.<.s p i                                   ",
"                                      q w e r <.t.FXK.i.<Xa.s.d.d.s.a.<Xg.u.y.h.<.r e y u                                       ",
"                                          E 4 5 6 7 <.<.9.r.2Xq.q.2X2.9.<.<.8 & 5 4 E                                           ",
"                                              . i = - ; : > _.`.`._.> : ; 1 2 X .                                               ",
"                                                        % & 1.|.3.1.& *                                                         ",
"                                                        # @ <.1.1.<.@ #                                                         ",
"                                                          o O + + O o                                                           ",
"                                                            . X X .                                                             "
};
