/* XPM */
static char *result[] = {
/* columns rows colors chars-per-pixel */
"64 64 209 2 ",
"   c #1A0E0D",
".  c #150908",
"X  c #1C110F",
"o  c #1E1311",
"O  c #211613",
"+  c #241916",
"@  c #261C19",
"#  c #2A1E1A",
"$  c #2C211E",
"%  c #33241F",
"&  c #2D2422",
"*  c #372924",
"=  c #3C2E27",
"-  c #3A2F2C",
";  c #342A27",
":  c #3F332F",
">  c #41352C",
",  c #4B3C33",
"<  c #463B39",
"1  c #4A413F",
"2  c #56463B",
"3  c #58473A",
"4  c #604C3F",
"5  c #584B47",
"6  c #5C5656",
"7  c #665447",
"8  c #645C5B",
"9  c #7A6756",
"0  c #6D6665",
"q  c #756D6D",
"w  c #7D7676",
"e  c #BA0B28",
"r  c #BA1935",
"t  c #A8122E",
"y  c #B9283C",
"u  c #B2343E",
"i  c #C50B2D",
"p  c #CC0529",
"a  c #D5022A",
"s  c #DE012A",
"d  c #D50024",
"f  c #C31634",
"g  c #C71B37",
"h  c #D30D31",
"j  c #E3002C",
"k  c #E20027",
"l  c #C4203A",
"z  c #C8253C",
"x  c #D0223E",
"c  c #9D463F",
"v  c #9A3A46",
"b  c #9F2A40",
"n  c #AC3647",
"m  c #C83648",
"M  c #C33F54",
"N  c #9F4D44",
"B  c #B44446",
"V  c #A74556",
"C  c #B84757",
"Z  c #A85B5A",
"A  c #826D5A",
"S  c #85715D",
"D  c #917050",
"F  c #BA7A5A",
"G  c #A65661",
"H  c #8D7663",
"J  c #907A65",
"K  c #937672",
"L  c #A46262",
"P  c #AB6764",
"I  c #B86666",
"U  c #B56364",
"Y  c #AF746F",
"T  c #C3454A",
"R  c #C14C53",
"E  c #C34755",
"W  c #C56752",
"Q  c #988656",
"!  c #B38F5C",
"~  c #9B836C",
"^  c #96816E",
"/  c #9E926C",
"(  c #948878",
")  c #8D8476",
"_  c #A89A67",
"`  c #B59C66",
"'  c #A38B72",
"]  c #AA8F75",
"[  c #B78B77",
"{  c #A99678",
"}  c #B4977D",
"|  c #BE8D61",
" . c #ABA56C",
".. c #BCA768",
"X. c #B7AA79",
"o. c #BAB477",
"O. c #C3AB5D",
"+. c #CA8E71",
"@. c #C9B26B",
"#. c #D8BD68",
"$. c #C7AE77",
"%. c #C5B777",
"&. c #CCAF6F",
"*. c #C9C47C",
"=. c #D9C473",
"-. c #E7C969",
";. c #F1D26C",
":. c #FFDB72",
">. c #EFD06A",
",. c #B57C84",
"<. c #C97081",
"1. c #938D8C",
"2. c #928A81",
"3. c #918C8C",
"4. c #A99A87",
"5. c #B49D86",
"6. c #B59497",
"7. c #BCA184",
"8. c #BAA589",
"9. c #BEB889",
"0. c #ACA498",
"q. c #B3A394",
"w. c #B4AA9C",
"e. c #B8A898",
"r. c #ABA789",
"t. c #A8A5A4",
"y. c #ACAAA9",
"u. c #AAA5A1",
"i. c #BBAEA2",
"p. c #B4ACA6",
"a. c #B5B2AC",
"s. c #BCB4AC",
"d. c #BCB7A9",
"f. c #BAB6B5",
"g. c #C28E96",
"h. c #C9978F",
"j. c #C1A386",
"k. c #C5AB8B",
"l. c #CBAD8D",
"z. c #C6A888",
"x. c #C7B488",
"c. c #CBAF92",
"v. c #CCB295",
"b. c #C8B59D",
"n. c #D2B393",
"m. c #DDBD9A",
"M. c #D8B897",
"N. c #E2BE9B",
"B. c #C6ACAE",
"V. c #C3B8AA",
"C. c #D4BCA1",
"Z. c #C9B9B6",
"A. c #CDCA82",
"S. c #D7D485",
"D. c #DBD787",
"F. c #D8D597",
"G. c #E2CE82",
"H. c #E3DE89",
"J. c #E3C19D",
"K. c #EAC19E",
"L. c #E1DE9A",
"P. c #ECE68E",
"I. c #EBE68D",
"U. c #F2ED91",
"Y. c #F7F494",
"T. c #FFF796",
"R. c #FFF997",
"E. c #FFFB98",
"W. c #D7D3A3",
"Q. c #CAC5BB",
"!. c #D0C7BD",
"~. c #CDC4AB",
"^. c #E6C6A0",
"/. c #EAC6A1",
"(. c #EDCAA3",
"). c #E1C6AA",
"_. c #F2CDA6",
"`. c #F5D1A9",
"'. c #FBD5AB",
"]. c #FFD8AE",
"[. c #FFDBB0",
"{. c #C9C4C3",
"}. c #CDC9C5",
"|. c #CDCACA",
" X c #C6C4C4",
".X c #D3CDC9",
"XX c #D4C9C4",
"oX c #D4D2CF",
"OX c #D5D4C7",
"+X c #DDCFD0",
"@X c #D4D3D2",
"#X c #D9D5D3",
"$X c #DAD9D5",
"%X c #DDDBDB",
"&X c #D8D7D8",
"*X c #E2DBD8",
"=X c #E5E1DE",
"-X c #DFDFE0",
";X c #E0DFE0",
":X c #E4E3E3",
">X c #EDECEC",
",X c #E9E6E3",
"<X c #F0EFED",
"1X c #F1F1ED",
"2X c #EEEDF0",
"3X c #F4F3F4",
"4X c #F7F7F8",
"5X c #F7F9F9",
"6X c #FFFFFF",
/* pixels */
"6X6X6X6X6X6X6X6X6X6X6X6X6X6X6X6X6X6X6X6X6X6X6X6X6X6X6X6X6X6X6X6X6X6X6X6X6X6X6X6X6X6X6X6X6X6X6X6X6X6X6X6X6X6X6X6X6X6X6X6X6X6X6X6X",
"6X6X6X6X6X6X6X6X6X6X6X6X6X6X6X6X6X6X6X6X6X6X6X6X6X6X6X6X6X6X6X6X6X6X6X6X6X6X6X6X6X6X6X6X6X6X6X6X6X6X6X6X6X6X6X6X6X6X6X6X6X6X6X6X",
"6X6X6X6X6X6X6X6X6X6X6X6X6X6X6X6X6X6X6X6X6X6X6X6X6X6X6X6X6X6X6X6X6X6X6X6X6X6X6X6X6X6X6X6X6X6X6X6X6X6X6X6X6X6X6X6X6X6X6X6X6X6X6X6X",
"6X6X6X6X6X6X6X6X6X6X6X6X6X6X6X6X6X6X6X6X6X6X6X6X6X6X6X6X6X6X6X6X6X6X6X6X6X6X6X6X6X6X6X6X6X6X6X6X6X6X6X6X6X6X6X6X6X6X6X6X6X6X6X6X",
"6X6X6X6X6X6X6X6X6X6X6X6X6X6X6X6X6X6X6X6X6X6X6X6X6X6X6X6X6X6X6X6X6X6X6X6X6X6X6X6X6X6X6X6X6X6X6X6X6X6X6X6X6X6X6X6X6X6X6X6X6X6X6X6X",
"6X6X6X6X6X6X6X6X6X6X6X6X6X6X6X6X6X6X6X6X6X6X6X6X6X6X6X6X6X6X6X6X5X6X6X5X6X6X3X4X6X6X6X6X6X6X6X6X6X6X6X6X6X6X6X6X6X6X6X6X6X6X6X6X",
"6X6X6X6X6X6X6X6X6X6X6X6X6X6X6X6X6X6X6X6X6X6X6X6X6X5X>X}.y.1.w q q q w 3.0.1.5 8 |.6X6X6X6X6X6X6X6X6X6X6X6X6X6X6X6X6X6X6X6X6X6X6X",
"6X6X6X6X6X6X6X6X6X6X6X6X6X6X6X6X6X6X6X6X6X6X6X2Xf.w < & O O # > , 3 7 : o O O O - 1.>X6X6X6X6X6X6X6X6X6X6X6X6X6X6X6X6X6X6X6X6X6X",
"6X6X6X6X6X6X6X6X6X6X6X6X6X6X6X6X6X6X6X6X6X5Xa.5 & + + 3 ~ 5.n.J._.`.J $ O * , + o o 8 ,X6X6X6X6X6X6X6X6X6X6X6X6X6X6X6X6X6X6X6X6X",
"6X6X6X6X6X6X6X6X6X6X6X6X6X6X6X6X6X6X6X6X%Xq $ O O O + > S M.].].].n.$   * 7.J.H # o o 1.4X6X6X6X6X6X6X6X6X6X6X6X6X6X6X6X6X6X6X6X",
"6X6X6X6X6X6X6X6X6X6X6X6X6X6X6X6X6X6X6X|.5 O + O , 7 # X X > k.].'.m.3 - ~ n.l.l.S , A 8.XX6X6X6X6X6X6X6X6X6X6X6X6X6X6X6X6X6X6X6X",
"6X6X6X6X6X6X6X6X6X6X6X6X6X6X6X6X6X6X|.5 O O o 5 m._.] > O O ~ ].'.'.(.n.7.J.'.].'.n.8._.V.4X6X6X6X6X6X6X6X6X6X6X6X6X6X6X6X6X6X6X",
"6X6X6X6X6X6X6X6X6X6X6X6X6X6X6X6X6X,X5 O + X 2 M.m.l.l.' 7 9 ^.'.'.'._.z.(.].(./._.].l.v.5.>X6X6X6X6X6X6X6X6X>X5X6X6X6X6X6X6X6X6X",
"6X6X6X6X6X6X6X6X6X6X6X6X6X6X6X6X5Xw * ; X 5 l.l.m._.'.].`.l.7.^.'.'.m.l.m.A , : , J N./.l.!.*X,X>X5X6X6X6X>Xq..X6X6X6X6X6X6X6X6X",
"6X6X6X6X6X6X6X6X6X6X6X6X6X6X6X6X{.; ~ l.' M.k.(.'.]._.l.7.z.8.8.'.'.(.k.,   + & o o 2 J.'.(._./.).~..X4X6X%X8.0.=X:X,X3X6X6X6X6X",
"6X6X6X6X6X6X6X6X6X6X6X6X6X6X6X5X0 O 5.].].l.m.].'.j.4 % o o > J _.'.'.9   - y.@X0 X X ' ].'.].'.'.'.J.Z.2X.XJ.J.M.v.q.u.>X6X6X6X",
"6X6X6X6X6X6X6X6X6X6X6X6X6X6X6X&X- X ] ].(.j.'.].} % X @ < - o o ' ].(.2 . 6 3X6X2.O o J ].'.'.'.'.'.'.K.w.e.`.].].J.4.{.6X6X6X6X",
"6X6X6X6X6X6X6X6X6X6X6X6X6X6X6Xt.o o ~ ].(.M.].m.: o $ 0.4X|.-   2 _.'.9 X $ 8 6 $ o + j.'.'.'.`.'.'.'.].n.X.N.(.'.l.q.}.5X6X6X6X",
"6X6X6X6X6X6X6X6X6X6X6X6X6X6X6X0 X X 9 ].'.'.].7.O X : oX2Xt.& X , K.'.m.7 @ X O @ ; ~ `.'.'.'.'.'.'.'.'.'.Y K Z.b.4.}.6X6X6X6X6X",
"6X6X6X6X6X6X6X6X6X6X6X6X6X1XZ.^ 3 O 7 ].'.'.].l.* o o , 5 o X o ~ ].'.].(.k.[ 5.z.J.'.'.'.'.'.'.'.'.'.'.].j.B.6X,X#X5X6X6X6X6X6X",
"6X6X6X6X6X6X6X5X6X6X6X6X5XV.M.'._.S 7 `.'.'.'.`.' * + O O # , ' (.'.'.'.'.'.'.].].'.'.'.'.'.'.'.'.'.'.'.'.m.:X6X6X6X6X6X6X6X6X6X",
"6X6X6X6X6X6X3Xi.*X6X6X6XoXl.'.'.]._.] K.'.'.'.'.'.N.j.} } l._.'.'.'.'.'.'.'.'.'.'.'.'.'.`.'.'.'.'.'.'.'.'.b.>X6X6X6X6X6X6X6X6X6X",
"6X6X6X6X6X6X:X7.Z.5X6X5XV.K.'.'.'.'._.'.'.'.'.'.'.'.'.].'.'.'.'.'.'.'.'.'.'.'.'.'.'.'.].'.'.'.'.'.'.'.'._.i.5X6X6X6X6X6X6X6X6X6X",
"6X6X6X#X!.!.Q.n.b.;X*XXXq.'.'.'.'.'.'.'.'.`.'.'.'.'.'.'.'.'.'.'.'.'.'.'.'.'.'.'.'._.m.n.J.`.'.'.'.`.'.'.n..X6X6X6X6X6X6X6X6X6X6X",
"6X6X6X}.b.M.(.'.J.e.P g [ '.'.'.'.'.'.'.'.'.'.'.'.'.'.'.'.'.'.'.'.`.'.'.'.`.'.'.`.} L P L } (.].'.'.].J.w.3X6X6X6X6X6X6X6X6X6X6X",
"6X6X6X1XB.c.'.'.^.k.y a [ '.'.'.'.'.'.'.'.'.'.'.'.'.'.`.'.'.'.'.'.'.'.'.'.'.'.'.^.Y U U I Z [ `.].`.v.p.,X6X6X6X6X6X6X6X6X6X6X6X",
"6X6X6X*X0.4././.0.v j s Z _.].'.'.'.(.n.(.N.N.N._._._.`.'.K.N._._._._.'.`._.`.`._.Y P I I I P k.j.Z K 2X6X6X6X6X6X6X6X6X6X6X6X6X",
"6X6X6X6X&X4.{ 8.@Xg.x k p Y m.(.m.h.B f m l l x m m m T T x x m m m R C R R R R R n v Z U Z v r i V :X6X6X6X6X6X6X6X6X6X6X6X6X6X",
"6X6X6X6X5X>Xp.{.6X6X*X<.g a l z l p k j j j j j j j j j j j j j k j j j k k j j j j s f y r s j f Z.6X6X6X6X6X6X6X6X6X6X6X6X6X6X",
"6X6X6X6X6X6X6X6X6X6X6X5XXXn s k j k j j j j j j j j j j j j j j j j j j j j j j j j j j k j a t 6.1X6X6X6X6X6X6X6X6X6X6X6X6X6X6X",
"6X6X6X6X6X6X6X6X6X6X6X6X6X,Xg.M a j j k j j j j j j j j j j j j j j j j j j j j j j j j j j k b %X6X6X6X6X6X6X6X6X6X6X6X6X6X6X6X",
"6X6X6X6X6X6X6X6X6X6X6X6X6X6X6X>Xg.E x s j j j j j j j j j j j j j j j j j j j j j j j j j j k p B.6X6X6X6X6X6X6X6X6X6X6X6X6X6X6X",
"6X6X6X6X6X6X6X6X6X6X6X6X6X6X6X6X6X5X+XY i k j j j j j j j j j j j j j j j j j j j j j j j j j k C 2X6X6X6X6X6X6X6X6X6X6X6X6X6X6X",
"6X6X6X6X6X6X6X6X6X6X6X6X6X6X6X6X6X6X6X5XZ.n k j j j j s j j j j j j j j j j j j j j j j j j j j g  X6X6X6X6X6X6X6X6X6X6X6X6X6X6X",
"6X6X6X6X6X6X6X6X6X6X6X6X6X6X6X6X6X6X6X6X6X,.d j j j j j j j j j j j j j j j j j j j j j j j j j a g.6X6X6X6X6X6X6X6X6X6X6X6X6X6X",
"6X6X6X6X6X6X6X6X6X6X6X6X6X6X6X6X6X6X6X6X6XB.h j j j j j j j j j j j j j j j j j j j j j j j j j k V  XQ.3X6X6X6X6X6X6X6X6X6X6X6X",
"6X6X6X6X6X6X6X6X6X6X6X6X6X6X6X6X6X6X6X6X6X}.g j j j j j j j j j j j j j j j j j j j j j j j s i e c *.*.a.6X6X6X6X6X6X6X6X6X6X6X",
"6X6X6X6X6X6X6X6X6X6X6X6X6X6X6X6X6X6X6X6X6X%Xn j j j j j j j j j j j j j j j j j k k j j s y N D _ P.H...) i.V.#X6X6X6X6X6X6X6X6X",
"6X6X6X6X6X6X6X6X6X6X6X6X6X6X6X6X6X6X6X6X6X2Xn j j j j j j j j j j j j j j j j s p d i y F *.=.U.T.T.X.x.K._.(.q.5X6X6X6X6X6X6X6X",
"6X6X6X6X6X6X6X6X6X6X6X6X6X6X6X6X6X6X6X6X6X5XG s j j j j j j j j j j j j k p n F | | &.H.E.E.R.R.R.S.z.].'.'.(.d.6X6X6X6X6X6X6X6X",
"6X6X6X6X6X6X6X6X6X6X6X6X6X6X6X6X6X6X6X6X6X5XY j j j j j j j k s j s a i B | I.Y.E.E.R.R.T.T.T.T.T.%.(.'.'.].J.Q.6X6X6X6X6X6X6X6X",
"6X6X6X6X6X6X6X6X6X6X6X6X6X6X6X6X6X6X6X6X6X6X6.a j j j j l B W W W W F $.P.R.R.R.R.R.R.R.T.T.T.R.H.X.K.(.'.'.c. X6X6X6X6X6X6X6X6X",
"6X6X6X6X6X6X6X6X6X6X6X6X6X6X6X6X6X6X6X6X6X6XZ.e h h T +.G.U.Y.Y.Y.Y.E.E.R.T.R.R.T.T.R.R.T.T.R.R. ./ ( q.m.8.2.|.6X6X6X6X6X6X6X6X",
"6X6X6X6X6X6X6X6X6X6X6X6X6X6X6X6X6X6X6X6X6X6X;X] $.-.P.R.E.R.R.R.E.T.T.T.T.T.R.R.R.T.T.T.T.T.T.U.o.A. X0.a.=X-X) XX5X=XV.V.5X6X6X",
"6X6X6X6X6X6X6X6X6X6X6X6X6X6X6X6X6X6X6X6X6X6X#Xo.E.E.R.T.T.T.T.T.T.T.T.T.T.T.E.D.P.U.Y.T.E.E.E.R.Y.9.>X&X|.6X%XQ ..0.@.O.w.6X6X6X",
"6X6X6X6X6X6X6X6X6X6X6X6X6X6X6X6X6X6X6X6X6X6X&XX.R.T.R.T.T.T.T.T.T.T.T.T.T.T.I.( V.~.W.F.W.D.F.L.F.}.6X3X0.V.4.O.;.O._ i.3X6X6X6X",
"6X6X6X6X6X6X6X6X6X6X6X6X6X6X6X6X6X6X6X6X6X6X-X9.T.T.T.T.T.T.Y.R.T.E.E.E.E.E.%.f.6X5X5X1X,X,X>X<X3X5X6X:X/ #.-.#...d.-X6X6X6X6X6X",
"6X6X6X6X6X6X6X6X6X6X6X6X6X6X6X6X6X6X6X6X6X6X&XX.R.R.R.E.E.Y.Y.U.P.D.D.S.S.A.r.-X6X6X6X6X6X6X6X6X6X6X6Xa.O.-. .w.:X6X6X6X6X6X6X6X",
"6X6X6X6X6X6X6X6X6X6X6X6X6X6X6X6X6X6X6X6X6X6X%X_ I.I.D.*.%.x.%.7.k./ d.$XOX$X>X6X6X6X6X6X6X6X6X6X6X6X6Xd.X.w.#X6X6X6X6X6X6X6X6X6X",
"6X6X6X6X6X6X6X6X6X6X6X6X6X6X6X6X6X6X6X6X6X6X5XoXQ.OX0.8.m.(.'.'.`.e.,X6X6X6X6X6X6X6X6X6X6X6X6X6X6X6X6X5X>X6X6X6X6X6X6X6X6X6X6X6X",
"6X6X6X6X6X6X6X6X6X6X6X6X6X6X6X6X6X6X6X6X6X6X6X6X6X6X Xv.].'.'.'.(.q.3X6X6X6X6X6X6X6X6X6X6X6X6X6X6X6X6X6X6X6X6X6X6X6X6X6X6X6X6X6X",
"6X6X6X6X6X6X6X6X6X6X6X6X6X6X6X6X6X6X6X6X6X6X6X6X6X6X%X8.'.].'.].`.( t.6X6X6X6X6X6X6X6X6X6X6X6X6X6X6X6X6X6X6X6X6X6X6X6X6X6X6X6X6X",
"6X6X6X6X6X6X6X6X6X6X6X6X6X6X6X6X6X6X6X6X6X6X6X6X6X6X5Xp.v.J._./.c.f.f.f.1X6X6X6X6X6X6X6X6X6X6X6X6X6X6X6X6X6X6X6X6X6X6X6X6X6X6X6X",
"6X6X6X6X6X6X6X6X6X6X6X6X6X6X6X6X6X6X6X6X6X6X6X6X6X6X6X5X%XXXw.( a.3X>X4.{ @X6X6X6X6X6X6X6X6X6X6X6X6X6X6X6X6X6X6X6X6X6X6X6X6X6X6X",
"6X6X6X6X6X6X6X6X6X6X6X6X6X6X6X6X6X6X6X6X6X6X6X6X6X6X6X6X6X6X6Xu.Q 8.w...@. X6X6X6X6X6X6X6X6X6X6X6X6X6X6X6X6X6X6X6X6X6X6X6X6X6X6X",
"6X6X6X6X6X6X6X6X6X6X6X6X6X6X6X6X6X6X6X6X6X6X6X6X6X6X6X6X6X6X6X|._ >.-.;...&X6X6X6X6X6X6X6X6X6X6X6X6X6X6X6X6X6X6X6X6X6X6X6X6X6X6X",
"6X6X6X6X6X6X6X6X6X6X6X6X6X6X6X6X6X6X6X6X6X6X6X6X6X6X6X6X6X3X!.X.-.;.:.>.{ 3X6X6X6X6X6X6X6X6X6X6X6X6X6X6X6X6X6X6X6X6X6X6X6X6X6X6X",
"6X6X6X6X6X6X6X6X6X6X6X6X6X6X6X6X6X6X6X6X6X6X6X6X6X6X6X6X6X0.` #.#.@.%.k.}.6X6X6X6X6X6X6X6X6X6X6X6X6X6X6X6X6X6X6X6X6X6X6X6X6X6X6X",
"6X6X6X6X6X6X6X6X6X6X6X6X6X6X6X6X6X6X6X6X6X6X6X6X6X6X6X6X6X-X}.@X%X:X<X4X6X6X6X6X6X6X6X6X6X6X6X6X6X6X6X6X6X6X6X6X6X6X6X6X6X6X6X6X",
"6X6X6X6X6X6X6X6X6X6X6X6X6X6X6X6X6X6X6X6X6X6X6X6X6X6X6X6X6X6X6X6X6X6X6X6X6X6X6X6X6X6X6X6X6X6X6X6X6X6X6X6X6X6X6X6X6X6X6X6X6X6X6X6X",
"6X6X6X6X6X6X6X6X6X6X6X6X6X6X6X6X6X6X6X6X6X6X6X6X6X6X6X6X6X6X6X6X6X6X6X6X6X6X6X6X6X6X6X6X6X6X6X6X6X6X6X6X6X6X6X6X6X6X6X6X6X6X6X6X",
"6X6X6X6X6X6X6X6X6X6X6X6X6X6X6X6X6X6X6X6X6X6X6X6X6X6X6X6X6X6X6X6X6X6X6X6X6X6X6X6X6X6X6X6X6X6X6X6X6X6X6X6X6X6X6X6X6X6X6X6X6X6X6X6X",
"6X6X6X6X6X6X6X6X6X6X6X6X6X6X6X6X6X6X6X6X6X6X6X6X6X6X6X6X6X6X6X6X6X6X6X6X6X6X6X6X6X6X6X6X6X6X6X6X6X6X6X6X6X6X6X6X6X6X6X6X6X6X6X6X",
"6X6X6X6X6X6X6X6X6X6X6X6X6X6X6X6X6X6X6X6X6X6X6X6X6X6X6X6X6X6X6X6X6X6X6X6X6X6X6X6X6X6X6X6X6X6X6X6X6X6X6X6X6X6X6X6X6X6X6X6X6X6X6X6X"
};
