/* XPM */
static char *_10377ce0b9541bdd75d2c07bb00209dGbSleIARFE6KE3er[] = {
/* columns rows colors chars-per-pixel */
"64 64 228 2 ",
"   c None",
".  c #1D1113",
"X  c #33150C",
"o  c #371B18",
"O  c #3E281A",
"+  c #3C2724",
"@  c #432718",
"#  c #452C25",
"$  c #4C3327",
"%  c #543726",
"&  c #553B36",
"*  c #483330",
"=  c #5B4234",
"-  c #624937",
";  c #1D5E6C",
":  c #187B79",
">  c #16626B",
",  c #2C7674",
"<  c #357673",
"1  c #2B7072",
"2  c #5E4642",
"3  c #4C5151",
"4  c #6F5445",
"5  c #725C4C",
"6  c #786557",
"7  c #6C6868",
"8  c #7A7A77",
"9  c #72696F",
"0  c #8D1C55",
"q  c #952E5C",
"w  c #912E5A",
"e  c #A12359",
"r  c #992C65",
"t  c #983464",
"y  c #A5376B",
"u  c #B2346C",
"i  c #AA3877",
"p  c #B83B79",
"a  c #A32A64",
"s  c #C83B7C",
"d  c #D63A7D",
"f  c #D43F6E",
"g  c #A84C5A",
"h  c #84664B",
"j  c #94735A",
"k  c #886E5B",
"l  c #A37B59",
"z  c #99446F",
"x  c #984972",
"c  c #A74374",
"v  c #B44E6F",
"b  c #937B6E",
"n  c #977D67",
"m  c #937B72",
"M  c #866E62",
"N  c #C44873",
"B  c #C9506D",
"V  c #C87370",
"C  c #0C8D7F",
"Z  c #2A877B",
"A  c #3A817D",
"S  c #299479",
"D  c #39987B",
"F  c #57947A",
"G  c #489179",
"H  c #77977E",
"J  c #A8815D",
"K  c #9B8477",
"L  c #92906D",
"P  c #A6866A",
"I  c #AD9162",
"U  c #A68A77",
"Y  c #AB987B",
"T  c #B79879",
"R  c #B19667",
"E  c #90AB79",
"W  c #A8B77E",
"Q  c #BCA26D",
"!  c #CF8D77",
"~  c #C7A76C",
"^  c #D6B66A",
"/  c #C6AC76",
"(  c #CCB277",
")  c #D5B47A",
"_  c #D8B977",
"`  c #D6A976",
"'  c #E3BF75",
"]  c #EAC87C",
"[  c #FDD575",
"{  c #FAD975",
"}  c #F6D57D",
"|  c #FCD67C",
" . c #F6D97C",
".. c #FBD97C",
"X. c #F7D977",
"o. c #F7D271",
"O. c #2A7D87",
"+. c #B33782",
"@. c #CB3B83",
"#. c #CA3D87",
"$. c #D93787",
"%. c #D83593",
"&. c #EC2D8D",
"*. c #E93088",
"=. c #B44583",
"-. c #C24381",
";. c #1A8C8E",
":. c #0C9899",
">. c #149B95",
",. c #199898",
"<. c #1D9985",
"1. c #25989A",
"2. c #258E8B",
"3. c #0BA49D",
"4. c #0DA094",
"5. c #16A198",
"6. c #199AA6",
"7. c #0C9FA2",
"8. c #2098A5",
"9. c #0DA2A2",
"0. c #05ABA6",
"q. c #05A5AB",
"w. c #0AA3A9",
"e. c #03AAAB",
"r. c #08A8A8",
"t. c #11A3AA",
"y. c #02AAB3",
"u. c #05A6B8",
"i. c #0AA9B3",
"p. c #499989",
"a. c #699C8C",
"s. c #71958A",
"d. c #72A890",
"f. c #5BAD90",
"g. c #01A7C2",
"h. c #8C8C89",
"j. c #848982",
"k. c #9B8C85",
"l. c #9A958D",
"z. c #9A9C97",
"x. c #95908F",
"c. c #B59A88",
"v. c #A79088",
"b. c #87A395",
"n. c #9DA19C",
"m. c #83A286",
"M. c #B9A487",
"N. c #BCA593",
"B. c #BDA998",
"V. c #AEA79C",
"C. c #A7ABA6",
"Z. c #ADB3AD",
"A. c #B4B6B3",
"S. c #E09A81",
"D. c #C8A988",
"F. c #D9A98E",
"G. c #D7B885",
"H. c #CDAD93",
"J. c #C8AB96",
"K. c #CDB598",
"L. c #D3B59B",
"P. c #D8B998",
"I. c #CEB38B",
"U. c #E0BE99",
"Y. c #E8AA85",
"T. c #CBB6A5",
"R. c #D5BCA7",
"E. c #CCA3A0",
"W. c #B4C283",
"Q. c #CACB8B",
"!. c #D8C486",
"~. c #D5C694",
"^. c #D8DA9B",
"/. c #D7CC91",
"(. c #E4C583",
"). c #E5CA8B",
"_. c #F8CF8C",
"`. c #ECD78C",
"'. c #F5D485",
"]. c #FCD582",
"[. c #F5DA84",
"{. c #FBD984",
"}. c #F6D48B",
"|. c #FCD48A",
" X c #F5DA8B",
".X c #FADA8A",
"XX c #E3CB92",
"oX c #E8C599",
"OX c #F4CD99",
"+X c #E8D497",
"@X c #F3DC92",
"#X c #F7D797",
"$X c #FCE797",
"%X c #F7E887",
"&X c #DBC1A5",
"*X c #D0C5B5",
"=X c #E4C3A3",
"-X c #EDCBA5",
";X c #ECCCAC",
":X c #E6C8A9",
">X c #F2CCA3",
",X c #F9CEA6",
"<X c #F1CDAB",
"1X c #FDCFAB",
"2X c #EED0A9",
"3X c #F5D1A6",
"4X c #FAD4A5",
"5X c #F5D3AC",
"6X c #FBD4AB",
"7X c #F8D8AC",
"8X c #ECCDB3",
"9X c #E5C7B4",
"0X c #F1CFB6",
"qX c #EBD3B5",
"wX c #F5D5B2",
"eX c #FAD5B2",
"rX c #FBD9B5",
"tX c #F5DBBC",
"yX c #FADEBC",
"uX c #F6D7B9",
"iX c #C7CBC7",
"pX c #D0D5CC",
"aX c #F8D6C1",
"sX c #E6DADD",
"dX c #FCE7C6",
"fX c #FFF3D4",
"gX c #EEEADF",
"hX c #F4F2E7",
/* pixels */
"                                                                                                                                ",
"                                                                                                                                ",
"                                                                                                                                ",
"                                                                                                                                ",
"                                                                                                                                ",
"                                                                          . .                                                   ",
"                                                                  + + + + + + # + o o o                                         ",
"                                                              v.2 + + & & # # $ $ # # + o                                       ",
"                                                            L.4 @ - b c.= O = b $ $ M * + * 2                                   ",
"                              w t q                     J.qXL.h P J.9Xn @ - J.9X= % T.K # $ K &                                 ",
"                  r u y r   i @.$.s p r               D.uXwXP.I.U.=XP.h j &XtX=Xj 5 K.R.U & c.U @                               ",
"                r @.&.$.+.r @.$.&.&.%.i             J.8X5XG.U.5X6X7XwXI.=XrXP.D.=X<X;XL.K.&X8X:X5 X                             ",
"              0 s *.&.d N g v B f d @.p           c.8XrXoXoX6X5X7X7X6XoXU.<XD.-XeXeXeXeXP.oXwXrXD.$                             ",
"              0 p $.d N ! OX#XOXS.g y v c         T.rX1X5X4X5X6X5X6X5X-XwX5X5XwX6X6X6X6X>XG.5X6XwXk X                           ",
"                y =.p v F.$X%X$XOXg s #.i t     Y 0X1X6X6X5X5XeX5X<Xj D.wX=XP =X7X7X7X6X5X5X3X7XeXK.$ X                         ",
"                  =.+.p B ! Y.` V N *.%.i       K.7X6X6X6X5X5X5XeX-XP P.wXP.j -X6X6X6X5X6X5X6X7X6XwXk o                         ",
"                  w #.$.$.d s e p s d u       P ;X5X7X6X6X5X7X7X7X6X5X6X6X7X5X6X6X6X6X5X6X6X6X6X6XrXJ.@                         ",
"                  t s $.@.-.c z x x t         H.wX7X4X6X,X>X,X3X3X4X7X6X6X7X7X5X>X6X,X6X6X6X6X6X6XeX8X4 o                       ",
"                      a y w                   L.wX7X6X6X,X,X>X>X>X>X6X6X7X7X7X,X5X,X>X>X,X6X6X6X6X6XuXP %                       ",
"                              9               L.rX6X6X6X1X6X5X5X5X7XyXrX6X7X6X,X6X6X,X,X6X6X6X6X6X7X7XI.L.8XqX                  ",
"                              3 3             L.rX6X6X6X6X6X6X7X7XwXdXyX7X6X6X6X6X6X6X6X6X6X6X6X6X4X5X6XeXwXwXqX                ",
"                                s.            H.rX6X6X6X6X6X4X7X7XtXdXyXwX7X6X6X6X6X6X6X6X6X6X6X6X4X4X7X6X6X6XwXK.              ",
"                                9 3           H.rX6X6X7X7X6X4X7XwXyXfXyXwX7X6X6X6X6X6X6X6X6X6X6X6X4X4X6X6X6X5XwXL.              ",
"                                9             H.eX6X4X6X6X6X5X6XwXdXfXyXwX6X7X6X6X6X6X6X6X6X6X6X6X7X4X6X5X6X6X;XT               ",
"                                              T <X6X4X6X5X6X6X5XeXyXdXrXeXeX6X6X7X7X7X7X7X6X6X6X6X7X5X:XwXwX;XH.                ",
"                          Y R.T.m               L.6X4X6X5X6X7X6X5XeXrXeXeX5X5X6X6X6X7X7X4X4X4X4X4XwXH.P c.J.                    ",
"                          M.tX&XN.v.            c.qX7X7X6X6X4X4X6X6X5X6X6X6X4X6X6X6X7X4X4X4X4X4X4X:X                            ",
"                          L.aXD.N.k.              M.qX5X6X6X4X4X6X6X6X6X6X6X4X4X6X7X7X6X6X7XwXwX;X                              ",
"                          c.R.N.c.                M.I.2XeX5X6X4X5X>X>X5X5X6X6X4X4X4X7X6XwXuXuX9X                                ",
"                            b K M.Y           G.+X+X(.) oX7X6X6XoXJ l oXeX6X5X6X4X4X7X5X7XwXP.T                                 ",
"                                Y +XXX/     G.#X X} | ] _ G.-X7X5XI.I.<X5X5X6X6X6X5X7X3XXX( ( ) !.!.I.                          ",
"                                  XX X`.G.) }.{.[ ..[ | {.(.G.G.G.oX>X>X5X5X5X>X>XoX) ~ ^ ] [..X[.@X+X                          ",
"                                  / @X.X|.{.| [ [ o.} ].} } }.'.] ^ ( ) ) G.G.G.) _ ] '.{.].| | ]..XXX                          ",
"                                    G.@X .....} '.^ '.{.} ....{.{.{.{.[.'.'.}.}.#X|..X{.].].} ].]..X).                          ",
"                                    I XX`.`.`.(.( ^ }.'...} | | | ....| } [ } ].'.].].} {.].].{.{..XG.                          ",
"                                      D.!.(     I !. X} [ [ ].].| | | [ [ [ [ | } } | ....} {.] '..X)                           ",
"                                                T XX[...{ | ].].].].].| | | | | } } } } } } {.^ ]  X(                           ",
"                                                D.`.X...[ | ].].].].].].].| ].| | | } } } ]..X^ ]  X/                           ",
"                                                I. XX.} ].].} } } } } } | | | ].].| | } ].].{.^ _  X~                           ",
"                                                /.[...].|.|.| | } ..{ } [ | | | | [ }  .{.].{.' ^ @X/                           ",
"                                              R ). .{ } ].|.{.{.].].} | ].].].].].].].'.].{.|.' _ #XQ                           ",
"                                              ~ OX| [ { { X.[.[.{.|.|.].].}  .].{.{.].| ].{..X(.Q / T                           ",
"                                              L.3X#X|.{.....} | {.|.|.|.].[ [ ]. X[.| [ [ }  X).~ ~.K.M.                        ",
"                                              H m.E E W ^.+X`.XXQ.W E W.^.@X X+X/.Q.!._.}.).Q.~.T c.T.B.                        ",
"                                              S <.5.<.S p.d.s.F D S S S f.d.H F D D G F F G D G 3 6                             ",
"                                              ;.r.e.y.r.4.,.6.6.w.r.r.r.9.,.,.6.w.e.w.6.8.9.3.,.;                               ",
"                                              ;.t.u.g.y.0.r.y.y.q.r.w.w.q.y.q.q.y.y.y.u.u.e.0.>.>                               ",
"                                            1 1.6.u.u.y.e.e.q.q.w.t.:.:.t.q.e.y.y.y.y.y.u.y.r.>.:                               ",
"                                              O.;.,.,.,.,.>.>.>.>.,.;.: 1.>.3.9.7.9.:.3.3.9.>.1.:                               ",
"                                                    G d.b.b.s.< p.A A < , , 2.Z < a.a.a.a.< , ,                                 ",
"                                                    Y 8XuXaXE.                    9XtXtX9XM                                     ",
"                                                    P 8XeXaXv.                    R.uXwX&X                                      ",
"                                                      *XqXT.m                     N.0X0XJ.                                      ",
"                                                      k.V.k.                      6 J.J.b                                       ",
"                                                      A.sXx.                      l.gXhXl.                                      ",
"                                                    8 Z.iXh.                      z.*XpXj.h.                                    ",
"                                                  8 Z.A.C.8                       j.Z.A.iXC.8                                   ",
"                                              7 n.A.C.z.n.h.                      h.Z.C.C.C.n.h.7                               ",
"                                            8 7                                                                                 ",
"                                                                                                                                ",
"                                                                                                                                ",
"                                                                                                                                ",
"                                                                                                                                ",
"                                                                                                                                "
};
