/* XPM */
static char *_44af25a253d445fc0c80813cb1b3851SFDEizvKIzl488xd[] = {
/* columns rows colors chars-per-pixel */
"64 64 165 2 ",
"   c None",
".  c #000101",
"X  c #0B0303",
"o  c #020708",
"O  c #000A0B",
"+  c #0C0D0D",
"@  c #140403",
"#  c #1B0504",
"$  c #1E0806",
"%  c #000F11",
"&  c #001114",
"*  c #001619",
"=  c #001A1D",
"-  c #151515",
";  c #1B1C1D",
":  c #171819",
">  c #240505",
",  c #250A08",
"<  c #2C0C0A",
"1  c #340D0A",
"2  c #3B0C0B",
"3  c #300707",
"4  c #3D110D",
"5  c #001D21",
"6  c #002226",
"7  c #00252A",
"8  c #002A2F",
"9  c #1F2020",
"0  c #002E34",
"q  c #00343A",
"w  c #00363B",
"e  c #242424",
"r  c #2C2D2D",
"t  c #2D2F30",
"y  c #3D3D3D",
"u  c #353637",
"i  c #410A0A",
"p  c #550D0D",
"a  c #43130F",
"s  c #4D1511",
"d  c #531712",
"f  c #5B1914",
"g  c #6D1211",
"h  c #6A1D17",
"j  c #641914",
"k  c #7B1313",
"l  c #751916",
"z  c #78211A",
"x  c #003C43",
"c  c #00424A",
"v  c #004147",
"b  c #004C55",
"n  c #004E58",
"m  c #00535E",
"M  c #005661",
"N  c #005964",
"B  c #005F68",
"V  c #00616E",
"C  c #006472",
"Z  c #006A75",
"A  c #006D7B",
"S  c #00747F",
"D  c #434444",
"F  c #494A4B",
"G  c #55595B",
"H  c #5B5B5C",
"J  c #535455",
"K  c #5B5F60",
"L  c #5E6264",
"P  c #656565",
"I  c #6B6B6B",
"U  c #6D7173",
"Y  c #737373",
"T  c #7D7D7D",
"R  c #891515",
"E  c #9A1717",
"W  c #961616",
"Q  c #A81919",
"!  c #B31B1B",
"~  c #BC1C1C",
"^  c #83241D",
"/  c #8E271F",
"(  c #982A21",
")  c #A12C23",
"_  c #AB2F25",
"`  c #AF3026",
"'  c #B43227",
"]  c #BC3429",
"[  c #C21D1D",
"{  c #CB1F1F",
"}  c #CD201F",
"|  c #CE2120",
" . c #D32523",
".. c #D62925",
"X. c #DA2D27",
"o. c #C3352A",
"O. c #CC382D",
"+. c #D43A2E",
"@. c #DC3A2F",
"#. c #DC3C30",
"$. c #E3352C",
"%. c #E5392E",
"&. c #E33E31",
"*. c #EB3B30",
"=. c #EB4133",
"-. c #F44335",
";. c #F84436",
":. c #007382",
">. c #007A85",
",. c #007B8A",
"<. c #7A7F82",
"1. c #00828E",
"2. c #008492",
"3. c #008C9C",
"4. c #008895",
"5. c #008FA2",
"6. c #0094A4",
"7. c #009AAD",
"8. c #0097A8",
"9. c #009EB2",
"0. c #00A1B5",
"q. c #00A5BA",
"w. c #00A9BE",
"e. c #00ADC2",
"r. c #00B4CB",
"t. c #00B8CF",
"y. c #00BCD4",
"u. c #00C1DA",
"i. c #8C8C8C",
"p. c #86898A",
"a. c #8D9396",
"s. c #959595",
"d. c #989B9D",
"f. c #9A9FA1",
"g. c #9CA3A6",
"h. c #A4A4A4",
"j. c #AAAAAA",
"k. c #A1A8AB",
"l. c #ADB4B8",
"z. c #B5B5B5",
"x. c #BCBCBC",
"c. c #B0B8BB",
"v. c #B6BDC0",
"b. c #BFC7CB",
"n. c #C2C2C2",
"m. c #CECECE",
"M. c #C1C9CD",
"N. c #C6CFD2",
"B. c #CCD5D9",
"V. c #CFD8DC",
"C. c #C9D2D5",
"Z. c #D1D2D2",
"A. c #D1DADE",
"S. c #DBDBDB",
"D. c #D4DCE0",
"F. c #DADFE2",
"G. c #DCE3E5",
"H. c #E2E2E2",
"J. c #E3E7E9",
"K. c #E6EAEB",
"L. c #EDEDED",
"P. c #ECEFF0",
"I. c #EFF0F1",
"U. c #F5F5F5",
"Y. c #F9F9F9",
/* pixels */
"                                                      . . . . . . . . . .                                                       ",
"                                                . . . . . . o . . o . . . . . .                                                 ",
"                                          . . . . + r H p.h.s.- O :.,.C x = o . . . .                                           ",
"                                        . . . r Y x.H.U.Y.Y.Z.- & 0.u.y.t.9.S x * . . .                                         ",
"                                    . . . r i.S.U.Y.U.U.U.Y.m.- % 9.y.y.y.y.y.0.,.b = . . .                                     ",
"                                  . . + Y S.Y.U.U.U.U.U.U.Y.m.- % 9.y.y.y.y.y.y.r.8.S x o . .                                   ",
"                                . . r j.U.U.U.U.U.U.U.U.U.Y.m.- % 9.y.y.y.y.y.y.y.t.7.1.N * . .                                 ",
"                              . . ; n.Y.U.U.U.U.U.U.U.U.U.Y.m.- % 9.y.y.y.y.y.y.y.y.y.7.2.C % . .                               ",
"                            . . . o Y L.U.U.U.U.U.U.U.U.U.Y.m.- % 9.y.y.y.y.y.y.y.y.y.y.8.x . . . .                             ",
"                          . . 8 m o . Y L.U.U.U.U.U.U.U.U.Y.m.- % 9.y.y.y.y.y.y.y.y.y.t.M . o K t . .                           ",
"                        . . * 6.y.V o . Y L.U.U.U.U.U.U.U.Y.m.- % 9.y.y.y.y.y.y.y.y.t.N . o U B.k.: . .                         ",
"                        . o A y.y.y.V o . Y L.U.U.U.U.U.U.Y.m.- % 9.y.y.y.y.y.y.y.r.N . . Y J.A.A.<.o .                         ",
"                      . . x r.y.y.y.y.V o . Y L.U.U.U.U.U.Y.m.- % 9.y.y.y.y.y.9.Z 0 . . . P U.G.V.N.D . .                       ",
"                      . O 3.y.y.y.y.y.y.V o . Y L.U.U.U.U.Y.m.- % 9.u.y.w.,.x & . . @ > . e H.P.A.A.g.+ .                       ",
"                    . . c y.y.y.y.y.y.y.y.V o . Y L.U.U.U.Y.m.- % 6.4.n = . . X 1 g Q p . D L.U.G.V.B.F . .                     ",
"                    . o 4.y.y.y.y.y.y.y.y.y.V o . Y L.U.U.Y.m.- o 5 o . . , h ' %. .! # o d.Y.U.K.V.A.d.o .                     ",
"                    . 7 e.y.y.y.y.y.y.y.y.y.y.V o . Y J.Z.s.D . . . # d ) #.-.;.$.{ g . u H.U.U.U.A.A.M.r .                     ",
"                  . . M y.y.y.y.y.y.y.y.y.y.y.y.V o o y ; . . X a / O.-.;.-.-.-. .! > . p.Y.U.U.U.G.V.A.L . .                   ",
"                  . . 2.y.y.y.y.y.y.y.y.y.y.r.3.n o . . . 1 z ] =.-.-.-.-.-.-.$.{ k . e S.U.U.U.U.J.V.D.a.o .                   ",
"                  . & 9.y.y.y.y.y.y.y.t.7.C 0 o . . , j _ &.-.-.-.-.-.-.-.-.-...~ 3 . T U.U.U.U.U.L.A.A.l.- .                   ",
"                  . 6 e.y.y.y.y.y.q.:.x % . . @ s ( +.-.;.-.-.-.-.-.-.-.-.-.%.} R . ; m.Y.U.U.U.U.I.A.A.b.e .                   ",
"                  . q t.y.y.y.7.b = . . X 4 ^ O.=.;.-.-.-.-.-.-.-.-.-.-.-.-...[ 2 . P U.U.U.U.U.U.U.D.A.C.u .                   ",
"                  . * b b b b 5 . X < l ] =.-.-.-.-.-.-.-.-.-.-.-.-.-.-.-.*.| W X . D P P P P P P P H G G ; .                   ",
"                  . . . . . . . . d o.-.;.-.-.-.-.-.-.-.-.-.-.-.-.-.-.-.-.$.{ k . . . . . . . . . . . . . . .                   ",
"                  . e Y Y Y Y r . . , j ` &.-.-.-.-.-.-.-.-.-.-.-.-.-.-.-.*.| E X . x N N N N N N M c x x & .                   ",
"                  . y L.Y.Y.Y.Z.I r o . . 1 z o.=.;.-.-.-.-.-.-.-.-.-.-.-.-.X.[ i . b y.y.y.y.y.y.t.3.2.1.6 .                   ",
"                  . r H.U.U.U.U.U.S.h.H ; . . X a / +.-.;.-.-.-.-.-.-.-.-.-.*.| R . & 7.y.y.y.y.y.r.4.1.>.* .                   ",
"                  . - m.Y.U.U.U.U.U.Y.U.Z.i.D - . . $ f ) #.-.-.-.-.-.-.-.-.-...~ 3 . M y.y.y.y.y.e.2.2.Z O .                   ",
"                  . o h.Y.U.U.U.U.U.U.U.U.Y.L.n.Y + . . . , h ' &.-.-.-.-.-.-.%.} k . = q.y.y.y.y.0.1.2.M . .                   ",
"                  . . I U.U.U.U.U.U.U.U.U.U.U.U.Y o o w 5 . . X 2 ^ o.=.;.-.-.-...! > . C y.y.y.y.8.1.2.w . .                   ",
"                    . r H.U.U.U.U.U.U.U.U.U.L.Y . o V t.w.,.x . . . @ s ( +.-.;.$.{ g . 7 e.y.y.r.4.1.>.= .                     ",
"                    . o j.Y.U.U.U.U.U.U.U.L.Y . o V y.y.y.u.9.% o r + . . $ f _ @. .! # . :.y.y.q.2.2.M o .                     ",
"                    . . J L.U.U.U.U.U.U.L.Y . o V y.y.y.y.y.9.% - n.x.Y r o . . < j E p . q r.y.6.1.1.8 . .                     ",
"                      . + z.Y.U.U.U.U.L.Y . o V y.y.y.y.y.y.9.% - m.Y.U.H.j.H 9 . . X # . 5 e.e.2.2.B o .                       ",
"                      . . D K.U.U.U.L.Y . o V y.y.y.y.y.y.y.9.% - m.U.U.U.Y.U.Z.s.F o . . m t.6.1.>.7 . .                       ",
"                        . . p.U.U.L.Y . o V y.y.y.y.y.y.y.y.9.% - m.Y.U.U.U.U.U.Y.L.T o . m 0.2.2.b . .                         ",
"                        . . - z.L.Y . o V y.y.y.y.y.y.y.y.y.9.% - m.Y.U.U.U.U.U.U.U.U.T o . v 1.V O . .                         ",
"                          . . r P o o V y.y.y.y.y.y.y.y.y.y.9.% - m.Y.U.U.U.U.U.U.U.U.U.T o . q = . .                           ",
"                            . . . o V y.y.y.y.y.y.y.y.y.y.y.9.% - m.Y.U.U.U.U.U.U.U.U.U.F.U o . . .                             ",
"                              . . & 5.y.y.y.y.y.y.y.y.y.y.y.9.% - m.Y.U.U.U.U.U.U.U.U.J.D.g.- . .                               ",
"                                . . = ,.y.y.y.y.y.y.y.y.y.y.9.% - m.Y.U.U.U.U.U.U.U.G.B.i.; . .                                 ",
"                                  . . o b 0.y.y.y.y.y.y.y.y.9.% - m.Y.U.U.U.U.U.I.G.c.G o . .                                   ",
"                                    . . . = V 0.y.y.y.y.y.y.9.% - m.U.U.U.U.U.J.v.U ; . . .                                     ",
"                                        . . . = n 4.w.y.y.u.0.& - Z.Y.Y.L.Z.f.G ; . . .                                         ",
"                                            . . . o 5 x N :.A O + p.s.Y F e o . . .                                             ",
"                                                . . . . . . . . . . . . . . . .                                                 ",
"                                                        . . . . . . . .                                                         ",
"                                                                                                                                ",
"                                                                                                                                ",
"                                                                                                                                ",
"                                                                                                                                ",
"                      .                     .       . . . . . . .         . . .       . . . . . . . . . .                       ",
"                      . .                 . .     . . . . . . . .     . . . . . . .   . . . . . . . . . .                       ",
"                      . .                 . .     . .                 . . .   . . .           . .                               ",
"                      . .                 . .     . .               . .           .           . .                               ",
"                      . .                 . .     . .               . .                       . .                               ",
"                      . . .     . .     . . .     . .                 . . .                   . .                               ",
"                        . .   . . . .   . .       . . . . . . .       . . . . . .             . .                               ",
"                        . .   . . . .   . .       . . . . . .             . . . . .           . .                               ",
"                        . . . . . . . . . .       . .                           . . .         . .                               ",
"                        . . . .     . . . .       . .                           . . .         . .                               ",
"                        . . . .     . . . .       . .                 . .       . .           . .                               ",
"                          . .         . .         . . . . . . . .     . . . . . . .           . .                               ",
"                          . .         . .         . . . . . . . .       . . . . .             . .                               "
};
