/* XPM */
static char *result[] = {
/* columns rows colors chars-per-pixel */
"64 64 236 2 ",
"   c #1B0D09",
".  c #1D0D04",
"X  c #1D140B",
"o  c #21130B",
"O  c #29170D",
"+  c #261914",
"@  c #37291D",
"#  c #27221C",
"$  c #372A25",
"%  c #3C3632",
"&  c #342A23",
"*  c #7D2918",
"=  c #7F3419",
"-  c #7B1E3E",
";  c #473C33",
":  c #453A2F",
">  c #782925",
",  c #7E2B39",
"<  c #6D3136",
"1  c #6A1719",
"2  c #56473A",
"3  c #583B45",
"4  c #73364B",
"5  c #584B45",
"6  c #524D4D",
"7  c #675448",
"8  c #735252",
"9  c #766355",
"0  c #697B6D",
"q  c #7B7268",
"w  c #9C1D0E",
"e  c #97190D",
"r  c #8A1E14",
"t  c #9C1D14",
"y  c #951E16",
"u  c #801C0D",
"i  c #AD1B04",
"p  c #A31E0D",
"a  c #AB1C0B",
"s  c #AB160A",
"d  c #BB1605",
"f  c #B31A04",
"g  c #BB150C",
"h  c #B21A0B",
"j  c #B81808",
"k  c #A41C13",
"l  c #AD1B12",
"z  c #A71E1C",
"x  c #B31910",
"c  c #B61814",
"v  c #B90D08",
"b  c #9B220D",
"n  c #8C2415",
"m  c #8D241C",
"M  c #8A2A1B",
"N  c #852618",
"B  c #942215",
"V  c #9B2213",
"C  c #95241C",
"Z  c #9A281A",
"A  c #862C10",
"S  c #AA200D",
"D  c #A22105",
"F  c #A32013",
"G  c #B2200B",
"H  c #97163E",
"J  c #A61F20",
"K  c #A7103F",
"L  c #862925",
"P  c #962923",
"I  c #8C352B",
"U  c #893928",
"Y  c #8C3033",
"T  c #B32F24",
"R  c #C1130A",
"E  c #8A4233",
"W  c #974839",
"Q  c #814228",
"!  c #A34A3C",
"~  c #9B1743",
"^  c #8E1F44",
"/  c #862A48",
"(  c #9A284B",
")  c #933756",
"_  c #BA3E68",
"`  c #A91C48",
"'  c #8E454F",
"]  c #9A6956",
"[  c #9D725D",
"{  c #99664A",
"}  c #A77155",
"|  c #A56953",
" . c #B25E76",
".. c #B4556B",
"X. c #977266",
"o. c #8D6F69",
"O. c #A87564",
"+. c #B66678",
"@. c #B7727D",
"#. c #AC6D6F",
"$. c #CB5776",
"%. c #D45879",
"&. c #E05A7E",
"*. c #C8657B",
"=. c #D5657E",
"-. c #CC757F",
";. c #968677",
":. c #84867F",
">. c #B58465",
",. c #A38979",
"<. c #B7967B",
"1. c #A8977E",
"2. c #CD806E",
"3. c #977E81",
"4. c #BC6F85",
"5. c #A97885",
"6. c #B97788",
"7. c #C56E82",
"8. c #D96A86",
"9. c #C3748A",
"0. c #C87486",
"q. c #D4738C",
"w. c #DC728B",
"e. c #DC748A",
"r. c #DC7492",
"t. c #D47590",
"y. c #E36686",
"u. c #E46C8B",
"i. c #EB6C8D",
"p. c #E86389",
"a. c #E4728D",
"s. c #E9718E",
"d. c #E86E91",
"f. c #E47291",
"g. c #F16F90",
"h. c #75B198",
"j. c #878782",
"k. c #9B9790",
"l. c #A79586",
"z. c #B19689",
"x. c #BD8794",
"c. c #AD9C96",
"v. c #B48A8F",
"b. c #93A398",
"n. c #AAA29A",
"m. c #B5A594",
"M. c #B7A79A",
"N. c #82B6A1",
"B. c #B6A9A3",
"V. c #BBB1A7",
"C. c #BCB5B4",
"Z. c #BBAFB0",
"A. c #C1868E",
"S. c #CA8695",
"D. c #C6959B",
"F. c #CC978C",
"G. c #C8A68B",
"H. c #C6AB96",
"J. c #CAB499",
"K. c #DAB89C",
"L. c #D2AB97",
"P. c #E3B897",
"I. c #C99DA6",
"U. c #D39DAC",
"Y. c #C9A7A6",
"T. c #C2B5AB",
"R. c #C5BAAA",
"E. c #CAB8A7",
"W. c #D5BCA8",
"Q. c #CBBCB4",
"!. c #C7BAB8",
"~. c #D4BDB7",
"^. c #D8A4AE",
"/. c #E4B9B6",
"(. c #E4B6A6",
"). c #D4C39E",
"_. c #DAC5AD",
"`. c #D9C4AB",
"'. c #CBC1BC",
"]. c #CCC2B2",
"[. c #D3C4B4",
"{. c #DBCCB6",
"}. c #D2C5BA",
"|. c #D8C9B9",
" X c #D7D1BD",
".X c #E6CAAA",
"XX c #E8D3AF",
"oX c #E6CCB7",
"OX c #F0CBBC",
"+X c #E1D3BD",
"@X c #EAD3BB",
"#X c #E8D7B9",
"$X c #FDDEBD",
"%X c #F7D7BB",
"&X c #F0C7AE",
"*X c #FBE2BE",
"=X c #F8E3BD",
"-X c #E8BEC5",
";X c #D2C5C3",
":X c #DBCCC3",
">X c #DBCCCA",
",X c #D5C9C6",
"<X c #DED7D4",
"1X c #D4CFC9",
"2X c #E7C5C8",
"3X c #E3D4C3",
"4X c #EEDCC4",
"5X c #E7D8C8",
"6X c #F3DDC5",
"7X c #FBDEC2",
"8X c #F8DDCC",
"9X c #E4D5D3",
"0X c #E5D9D5",
"qX c #EBDBD6",
"wX c #E9D8D8",
"eX c #F5DDDC",
"rX c #F6D8D9",
"tX c #EDE3CE",
"yX c #F6E3C4",
"uX c #FBE3C3",
"iX c #F4E3CC",
"pX c #FAE4CA",
"aX c #F9E9CB",
"sX c #ECE3DE",
"dX c #EDE7D3",
"fX c #F5E5D3",
"gX c #F5E2DE",
"hX c #FBE3DF",
"jX c #F9E8D3",
"kX c #FEDFE3",
"lX c #ECE9E9",
"zX c #F5E4E3",
"xX c #FBE4E2",
"cX c #F8E7E6",
"vX c #FAF7F6",
"bX c None",
/* pixels */
"bXbXbXbXbXbXbXbXbXbXbXbXbXbXbXbXbXbXbXbXbXbXbXbXbXbXbXbXbXbXbXbXbXbXbXbXbXbXbXbXbXbXbXbXbXbXbXbXbXbXbXbXbXbXbXbXbXbXbXbXbXbXbXbX",
"bXbXbXbXbXbXbXbXbXbXbXbXbXbXbXbXbXbXbXbXbXbXbXbXbXbXbXbXbXbXbXbXbXbXbXbXbXbXbXbXbXbXbXbXbXbXbXbXbXbXbXbXbXbXbXbXbXbXbXbXbXbXbXbX",
"bXbXbXbXbXbXbXbXbXbXbXbXbXbXbXbXbXbXbXbXbXbXbXbXbXbXbXbXbXbXbXbXbXbXbXbXbXbXbXbXbXbXbXbXbXbXbXbXbXbXbXbXbXbXbXbXbXbXbXbXbXbXbXbX",
"bXbXbXbXbXbXbXbXbXbXbXbXbXbXbXbXbXbXbXbXbXbXbXbXbXbXbXbXbXbXbXbXbXbXbXbXbXbXbXbXbXbXbXbXbXbXbXbXbXbXbXbXbXbXbXbXbXbXbXbXbXbXbXbX",
"bXbXbXbXbXbXbXbXbXbXbXbXbXbXbXbXbXbXbXbXbXbXbXbXbXbXbXbXbXbXbXbXbXbXbXbXbXbXbXbXbXbXbXbXbXbXbXbXbXbXbXbXbXbXbXbXbXbXbXbXbXbXbXbX",
"bXbXbXbXbXbXbXbXbXbXbXbXbXbXbXbXbXbXbXbXbXbXbXbXbXbXbXbXbXbXbXbXbXbXbXbXbXbXbXbXbXbXbXbXbXbXbXbXbXbXbXbXbXbXbXbXbXbXbXbXbXbXbXbX",
"bXbXbXbXbXbXbXbXbXbXbXbXbXbXbXbXbXbXbXbXbXbXbXbXbXbXbXbXbXbXbXbXbXbXbXbXbXbXbXbXbXbXbXbXbXbXbXbXbX1 bXbXbXbXbXbXbXbXbXbXbXbXbXbX",
"bXbXbXbXbXbXbXbXbXbXbXbXbXbXbXbXbXbXbXbXbXbXbXbXbXbXbXbXbXbXbXbXbXbXbXbXbXbXbXbXbXbXbXbXbXbXbXY L J y P L bXbXbXbXbXbXbXbXbXbXbX",
"bXbXbXbXbXbXbXbXbXbXbXbXbXbXbXbXbXbXbXbXbXbXbXbXbXbXbXbXbXbXbXbXbXbXbXbXbXbXbXbXbXbXbXbXbXbXI t h x h a D n bXbXbXbXbXbXbXbXbXbX",
"bXbXbXbXbXbXbXbXbXbXbXbXbXbXbXbXbXbXbXbXbXbXbXbXbXbXbXbXbXbXbXbXbXW I I P C P bXbXbXbXbXbXbX* V S s s i i F m bXbXbXbXbXbXbXbXbX",
"bXbXbXbXbXbXbXbXbXbXbXbXbXbXbXbXbXbXbXbXbXbXbXbXbXbXbXbX! Z F V V S a s s s s a e V C bXbXm B k s S S a f a k r bXbXbXbXbXbXbXbX",
"bXbXbXbXbXbXbXbXbXbXbXbXbXbXbXbXbXbXbXbXbXbXbXbXbXbXU M F h d d d d d j f f f d d j s l k t s h a S S h g v h S * bXbXbXbXbXbXbX",
"bXbXbXbXbXbXbXbXbXbXbXbXbXbXbXbXbXbXbXbXbXbXbXbXW P t x j j h s s f h G i i f i i f a S a a s a i a S a g R R a n bXbXbXbXbXbXbX",
"bXbXbXbXbXbXbXbXbXbXbXbXbXbXbXbXbXbXbXbXbXbXbXU r l c g g l l k k l x G g g v h a i a s a h x g g h a l c g d D C bXbXbXbXbXbXbX",
"bXbXbXbXbXbXbXbXbXbXbXbXbXbXbXbXbXbXbXbXbXbXL k f f f S w t Z Z B B y B e T k l F F t p F w a l c f f x l h f D * bXbXbXbXbXbXbX",
"bXbXbXbXbXbXbXbXbX< bXbXbXbXbXbXbXbXbXbXbXL F j j D u * U U W } | } | } >.K.>.E L I { U = U A n B h d h x a D B bXbXbXbXbXbXbXbX",
"bXbXbXbXbXbXbXbXn F V Z bXbXbXbXbXbXbXbXW y l c t U { <.L.L.J._.+XiX#XXX*XpXyX_.,.H.`.<.<.K.O.E E k j j S B M > bXbXbXbXbXbXbXbX",
"bXbXbXbXbXbXbXL B h i p B Y bXbXbXbXbXbXM B C C 2.&XXXJ.E..XXX.XW.).yX=XyXyXpX3Xm.E.`.`.J.`.OXG.| N Z m n U bXbXbXbXbXbXbXbXbXbX",
"bXbXbXbXbXbXbXW b f i a V L < 0 h.h.n.' C B N } %XW.G.+XtX X+X XqX{.J.yXyXaX`.M.oXfXjXfXyXJ.`.8Xz.bXbXbXbXbXbXbXbXbXbXbXbXbXbXbX",
"bXbXbXbXbXbXbXI F a b B P > 4 0 h.N.:., F B U .X).J.6XoXo.2 $ $ 2 l.H.#XaX#Xl.;.8 7 ;. XjX3Xm.3XbXbXbXbXbXbXbXbXbXbXbXbXbXbXbXbX",
"bXbXbXbXbXbXbX> m B I bXbXbXbXbXbXb.:.> J n >.uXXXyXoX7 X + % % o + ;.aXyXE.;   + &   5 +XfX{. XR.bXbXbXbXbXbXbXbXbXbXbXbXbXbXbX",
"bXbXbXbXbXbXbX< bXbXbXbXbXbXbXbXbX[.R.] L U .XuXpXpXl.O X 0 <XsX8   7 yXiXq . 5 C.;X: X l.jXyXiXyXtXbXbXbXbXbXbXbXbXbXbXbXbXbXbX",
"bXbXbXbXbXbXbXbXbXbXbXbXbXbXbXbX].6XuXXX{ { %X$X7XfX;.X # k.lX1X6   9 pX6X7   h.vX<X2 . ;.aXuXuXuXuX6X3XbXbXbXbXbXbXbXbXbXbXbXbX",
"bXbXbXbXbXbXbXbXbXbXbXbXbXbXbXbX+XpX*X*X.XG.$X$X7XiXQ.%   # % & o $ m.fXhXX.o & 6 ; X @ K.uXuX*X*X*XuXpX+XbXbXbXbXbXbXbXbXbXbXbX",
"bXbXbXbXbXbXbXbXbXbXbXbXbXbXbXR.4XyXuX*X*X*X*X*X*XuXpX`.o.2 2 2 9 m.6XiXiX6X1.2 @ @ 2 1.uX=XuX*X*X$X$XpX6XR.bXbXbXbXbXbXbXbXbXbX",
"bXbXbXbXbXbXbXbXbXbXbXbXbXbXbX[.fXyXuXuX*XuX*XuX7XuX7XpXpX4XXX4X7XpXpXaXaXaXaX@X{.{.#XaX=X=X=X=XuX7X$X7XiX|.bXbXbXbXbXbXbXbXbXbX",
"bXbXbXbXbXbXbXbXbXbXbXbXbXbXbX XfXuXuXuXyXaXpXuXpX7X7XpXuXuXuX*X7X*XuXuXuXuXuXyXpXuXuX=XuX*XuXuXuX*X7XpXfX[.bXbXbXbXbXbXbXbXbXbX",
"bXbXbXbXbXbXbXbXbXbXbXbXbXbXbX}.jX8XpX6X+X{.{.%X7XpXpXuXuX*X*X*X7X$X$X=X=X*X=X=X*X*X$XuXuXuXaXuXuX7XuXiXfXR.bXbXbXbXbXbXbXbXbXbX",
"bXbXbXbXbXbXbXbXbXbXbXbXbXbXbXbX}.3XoX[.|.}.M.M.~.`.oX@X6X6XpXpXuXuXuX=X*X*X*X*X*X$X$X6XW.G.`.aXpXpX6X@X[.q bXbXbXbXbXbXbXbXbXbX",
"bXbXbXbXbXbXbXbXbXbXR.n.n.bXbXbXbXbXc.Q.}.:XqXeXrX5X|.T.T.|.[.[.+X5XyXuXaXuXyX=XuXuX7XF.} ] [ &XuXpX_.;.m.bXbXbXbXbXbXbXbXbXbXbX",
"bXbXbXbXbXbXbXbXbXB.3XtX].5X<XV.C.'.<XsXkXcXcXcXxXcXcXwX}.sXbXbXB.R.[.].E.+X@X=XuXpX2X] O.O.[ &XuXuXJ.M.R.bXbXbXbXbXbXbXbXbXbXbX",
"bXbXbXbXbXbXbXbXbXn.5XgXqXT.B.<XsXzXzXcXzXkXcXkXxXxXxXzX,XbXbXbXbXbX9XE.c.l.E.].Q.W.~.X.9 o.H.6X@XW.m.V.bXbXbXbXbXbXbXbXbXbXbXbX",
"bXbXbXbXbXbXbXbXbXbXbXbXbXB.!.zXgXzXcXcXcXcXxXkXxXhXhXhXgX!.bXbXbX!.Q.0XcX9X!.9XlXsXn.V.M.B.Q.E.z.l.B.;.bXbXbXbXbXbXbXbXbXbXbXbX",
"bXbXbXbXbXbXbXbXbXbXbXbXbXbXbXbXbX;X;X,X>X9X2X9XhXhXhXhXxX3X'.,X;X9XzXzXzXcXwX~.,X:XQ.cXxXxXhXeX|.|.>X,XbXbXbXbXbXbXbXbXbXbXbXbX",
"bXbXbXbXbXbXbXbXbXbXbXbXbXbXbXbXbXbXbXbXbXl.B.!.qXhXhXxXhXcXqXqXgXzXgXkXxXxXkXkX>XQ.qXcXgX:XeXeXhXhXxXcX!.bXbXbXbXbXbXbXbXbXbXbX",
"bXbXbXbXbXbXbXbXbXbXbXbXbXbXbXbXbXbXbXbXbXbX0XcXxXxXxXhXhXhXxXxXxXxXxXxXxXeXkXxXxXxXxXxXrX~.gXxXeXxXxXcXZ.bXbXbXbXbXbXbXbXbXbXbX",
"bXbXbXbXbXbXbXbXbXbXbXbXbXbXbXbXbXbXbXbXbX'.zXcXxXxXxXhXhXhXhXhXhXxXhXhXkXhXxXhXhXkXxXxXwXZ.kXcXcXzXcXlX!.bXbXbXbXbXbXbXbXbXbXbX",
"bXbXbXbXbXbXbXbXbXbXbXbXbXbXbXbXbXbXbXbXB.wXkXzXxXxXhXxXcXhXhXhXhXhXhXhXhXhXhXhXhXxXxXxX0Xc.;X>XwXsXzXbXbXbXbXbXbXbXbXbXbXbXbXbX",
"bXbXbXbXbXbXbXbXbXbXbXbXbXbXbXbXbXbXbXbX3.wXxXkXhXxXhXxXhXhXhXhXhXhXhXhXhXhXhXhXxXhXcXcXwXbXbXbXbXbXbXbXbXbXbXbXbXbXbXbXbXbXbXbX",
"bXbXbXbXbXbXbXbXbXbXbXbXbXbXbXbXbXbX9.9.6.S.-XxXxXxXcXhXhXhXxXgXhXhXxXxXhXxXxXeXeXkXkXkX>XbXbXbXbXbXbXbXbXbXbXbXbXbXbXbXbXbXbXbX",
"bXbXbXbXbXbXbXbXbXbXbXbXbXbXbXbXbX4.r.f.r.4...U.2XrXxXxXxXkXkXxXcXgXzXzXzXxXkXgXxXhXxXkX!.bXbXbXbXbXbXbXbXbXbXbXbXbXbXbXbXbXbXbX",
"bXbXbXbXbXbXbXbXbXbXbXbXbXbXbXbX5.t.u.u.8.7.8.4.6.x.U./.-X2XoX2XrXhXxXxXzXkXxXxXgXxXxX0XC.bXbXbXbXbXbXbXbXbXbXbXbXbXbXbXbXbXbXbX",
"bXbXbXbXbXbXbXbXbXbXbXbXbXbXbXbXv.9.r.y.8.d.d.8.8.*.0.0.q.+.+.x.A.^.2XrXeXrXoX^.D.x.^.c.bXbXbXbXbXbXbXbXbXbXbXbXbXbXbXbXbXbXbXbX",
"bXbXbXbXbXbXbXbXbXbXbXbXbXbXbXbX9XI.7.u.p.p.d.p.%.y.i.w.a.$.8.e.e.+.+.0.9.@.@.-.q...4.6.5.bXbXbXbXbXbXbXbXbXbXbXbXbXbXbXbXbXbXbX",
"bXbXbXbXbXbXbXbXbXbXbXbXbXbXbX/ 5.cXbX#.7.t.8.u.&.i.i.i.%.%.g.i.u.%.$.w.q.*.*.s.g.%.%.r.4.bXbXbXbXbXbXbXbXbXbXbXbXbXbXbXbXbXbXbX",
"bXbXbXbXbXbXbXbXbXbXbXbXbXbX( ^ ' bXbXbX..#.0.w.i.i.i.i.8.y.i.i.s.$.8.i.s.y.$.s.g.p.&.d.t.#.bXbXbXbXbXbXbXbXbXbXbXbXbXbXbXbXbXbX",
"bXbXbXbXbXbXbXbXbXbXbXbXbX( K ` ^.bXj.k.|./.6.-.e.w.f.r.w.r.a.a.u.8.u.i.s.i.y.a.8.s.g.i.t.4.bXbXbXbXbXbXbXbXbXbXbXbXbXbXbXbXbXbX",
"bXbXbXbXbXbXbXbXbXbXbXbXY ~ K ( D.Z. X+X=X7X6X/.x.#.6.6.S.6.4.q.r.s.i.g.g.a.=.-.@.0.0.6.6.5.bXbXbXbXbXbXbXbXbXbXbXbXbXbXbXbXbXbX",
"bXbXbXbXbXbXbXbXbXbXbX< , ( bXbXbXl.5XpX=X=XyXfXbXbXbXbXbXbXbXbX9.q.q.q.=.-.F.W.Y.bXbXbXbXbXbXbXbXbXbXbXbXbXbXbXbXbXbXbXbXbXbXbX",
"bXbXbXbXbXbXbXbXbXbXbXbXbXbXbXbXbXbX~.7XyX6XtXbXbXbXbXbXbXbXbXbXbXbX5.D.&X2X8XfXbXbXbXbXbXbXbXbXbXbXbXbXbXbXbXbXbXbXbXbXbXbXbXbX",
"bXbXbXbXbXbXbXbXbXbXbXbXbXbXbXbXbXbXbXbXbXbXbXbXbXbXbXbXbXbXbXbXbXbXbX XdXjXaXtXbXbXbXbXbXbXbXbXbXbXbXbXbXbXbXbXbXbXbXbXbXbXbXbX",
"bXbXbXbXbXbXbXbXbXbXbXbXbXbXbXbXbXbXbXbXbXbXbXbXbXbXbXbXbXbXbXbXbXbXbXbX5X3X[.].bXbXbXbXbXbXbXbXbXbXbXbXbXbXbXbXbXbXbXbXbXbXbXbX",
"bXbXbXbXbXbXbXbXbXbXbXbXbXbXbXbXbXbXbXbXbXbXbXbXbXbXbXbXbXbXbXbXbXbXbXbXZ.Z.:X~.bXbXbXbXbXbXbXbXbXbXbXbXbXbXbXbXbXbXbXbXbXbXbXbX",
"bXbXbXbXbXbXbXbXbXbXbXbXbXbXbXbXbXbXbXbXbXbXbXbXbXbXbXbXbXbXbXbXbXbXbXbXbXlXvX>XbXbXbXbXbXbXbXbXbXbXbXbXbXbXbXbXbXbXbXbXbXbXbXbX",
"bXbXbXbXbXbXbXbXbXbXbXbXbXbXbXbXbXbXbXbXbXbXbXbXbXbXbXbXbXbXbXbXbXbXbXbXbXlXlXo.8 bXbXbXbXbXbXbXbXbXbXbXbXbXbXbXbXbXbXbXbXbXbXbX",
"bXbXbXbXbXbXbXbXbXbXbXbXbXbXbXbXbXbXbXbXbXbXbXbXbXbXbXbXbXbXbXbXbXbXbXbXbX4._ ` ( ^ < bXbXbXbXbXbXbXbXbXbXbXbXbXbXbXbXbXbXbXbXbX",
"bXbXbXbXbXbXbXbXbXbXbXbXbXbXbXbXbXbXbXbXbXbXbXbXbXbXbXbXbXbXbXbXbXbXbXbXbX, ~ ~ ^ ) bXbXbXbXbXbXbXbXbXbXbXbXbXbXbXbXbXbXbXbXbXbX",
"bXbXbXbXbXbXbXbXbXbXbXbXbXbXbXbXbXbXbXbXbXbXbXbXbXbXbXbXbXbXbXbXbXbXbXbX3 4 / bXbXbXbXbXbXbXbXbXbXbXbXbXbXbXbXbXbXbXbXbXbXbXbXbX",
"bXbXbXbXbXbXbXbXbXbXbXbXbXbXbXbXbXbXbXbXbXbXbXbXbXbXbXbXbXbXbXbXbXbXbXbXbXbXbXbXbXbXbXbXbXbXbXbXbXbXbXbXbXbXbXbXbXbXbXbXbXbXbXbX",
"bXbXbXbXbXbXbXbXbXbXbXbXbXbXbXbXbXbXbXbXbXbXbXbXbXbXbXbXbXbXbXbXbXbXbXbXbXbXbXbXbXbXbXbXbXbXbXbXbXbXbXbXbXbXbXbXbXbXbXbXbXbXbXbX",
"bXbXbXbXbXbXbXbXbXbXbXbXbXbXbXbXbXbXbXbXbXbXbXbXbXbXbXbXbXbXbXbXbXbXbXbXbXbXbXbXbXbXbXbXbXbXbXbXbXbXbXbXbXbXbXbXbXbXbXbXbXbXbXbX",
"bXbXbXbXbXbXbXbXbXbXbXbXbXbXbXbXbXbXbXbXbXbXbXbXbXbXbXbXbXbXbXbXbXbXbXbXbXbXbXbXbXbXbXbXbXbXbXbXbXbXbXbXbXbXbXbXbXbXbXbXbXbXbXbX",
"bXbXbXbXbXbXbXbXbXbXbXbXbXbXbXbXbXbXbXbXbXbXbXbXbXbXbXbXbXbXbXbXbXbXbXbXbXbXbXbXbXbXbXbXbXbXbXbXbXbXbXbXbXbXbXbXbXbXbXbXbXbXbXbX",
"bXbXbXbXbXbXbXbXbXbXbXbXbXbXbXbXbXbXbXbXbXbXbXbXbXbXbXbXbXbXbXbXbXbXbXbXbXbXbXbXbXbXbXbXbXbXbXbXbXbXbXbXbXbXbXbXbXbXbXbXbXbXbXbX"
};
